<?xml version="1.0" standalone="no"?>
<!DOCTYPE svg PUBLIC "-//W3C//DTD SVG 20010904//EN"
 "http://www.w3.org/TR/2001/REC-SVG-20010904/DTD/svg10.dtd">
<svg version="1.0" xmlns="http://www.w3.org/2000/svg"
 width="360.000000pt" height="360.000000pt" viewBox="0 0 360.000000 360.000000"
 preserveAspectRatio="xMidYMid meet">

<g transform="translate(0.000000,360.000000) scale(0.100000,-0.100000)"
fill="#000000" stroke="none">
<path d="M1985 3123 c-310 -19 -584 -128 -835 -330 -76 -61 -163 -149 -212
-212 l-26 -35 -103 32 c-57 17 -105 29 -107 27 -5 -4 169 -818 186 -873 7 -21
14 -16 103 65 52 49 164 151 249 228 211 192 324 297 328 305 1 4 -40 20 -93
36 -52 16 -95 32 -95 37 0 13 154 169 212 213 120 93 294 169 454 200 114 21
302 22 415 0 418 -79 766 -386 907 -801 24 -71 52 -202 52 -244 0 -16 5 -33
10 -36 13 -8 13 22 0 160 -17 181 -59 333 -133 480 -180 361 -514 622 -914
715 -78 18 -293 43 -333 38 -8 -1 -37 -3 -65 -5z"/>
<path d="M2499 1702 c-113 -103 -264 -241 -337 -306 -73 -66 -132 -123 -132
-126 0 -4 43 -20 95 -36 52 -16 95 -33 95 -37 0 -5 -44 -53 -97 -107 -147
-147 -292 -232 -490 -288 -91 -25 -112 -27 -288 -27 -177 0 -197 2 -289 28
-173 48 -332 132 -465 247 -145 124 -260 285 -331 463 -41 100 -80 254 -80
310 0 20 -5 39 -12 43 -15 9 -4 -163 18 -291 69 -398 344 -764 714 -950 166
-83 318 -126 523 -146 287 -28 626 58 883 223 129 83 279 218 355 318 l26 34
94 -28 c52 -16 100 -31 108 -34 17 -6 17 -3 -39 248 -22 102 -63 288 -90 414
-28 126 -52 231 -53 233 -2 1 -96 -82 -208 -185z"/>
</g>
</svg>
