<svg width="24" height="24" viewBox="0 0 24 24" fill="none" xmlns="http://www.w3.org/2000/svg">
<path fill-rule="evenodd" clip-rule="evenodd" d="M15.3478 6.27601C15.5132 6.44793 15.6036 6.67847 15.5991 6.91698C15.5946 7.1555 15.4956 7.38247 15.3238 7.54801L10.5982 12L15.3238 16.452C15.413 16.5329 15.4851 16.6309 15.5357 16.7402C15.5864 16.8495 15.6146 16.9679 15.6186 17.0882C15.6227 17.2086 15.6026 17.3286 15.5594 17.441C15.5163 17.5535 15.451 17.6561 15.3674 17.7429C15.2839 17.8297 15.1838 17.8988 15.073 17.9461C14.9623 17.9935 14.8432 18.0181 14.7227 18.0186C14.6023 18.0191 14.4829 17.9954 14.3718 17.9489C14.2607 17.9024 14.16 17.8341 14.0758 17.748L8.67581 12.648C8.58871 12.5641 8.51943 12.4634 8.4721 12.3521C8.42478 12.2407 8.40039 12.121 8.40039 12C8.40039 11.879 8.42478 11.7593 8.4721 11.648C8.51943 11.5366 8.58871 11.436 8.67581 11.352L14.0758 6.25201C14.2477 6.08662 14.4783 5.99624 14.7168 6.00074C14.9553 6.00524 15.1823 6.10425 15.3478 6.27601Z" fill="#263238"/>
</svg>
