<svg width="24" height="24" viewBox="0 0 24 24" fill="none" xmlns="http://www.w3.org/2000/svg">
<path fill-rule="evenodd" clip-rule="evenodd" d="M8.65219 17.7241C8.48679 17.5522 8.39641 17.3217 8.40091 17.0831C8.40541 16.8446 8.50442 16.6177 8.67619 16.4521L13.4018 12.0001L8.67619 7.54811C8.58697 7.46718 8.51491 7.36918 8.46427 7.25989C8.41363 7.15061 8.38544 7.03227 8.38137 6.91189C8.3773 6.79151 8.39744 6.67154 8.44059 6.55908C8.48374 6.44663 8.54902 6.34398 8.63257 6.25722C8.71612 6.17046 8.81623 6.10135 8.92698 6.05399C9.03772 6.00663 9.15685 5.98198 9.2773 5.9815C9.39774 5.98103 9.51706 6.00473 9.62818 6.05121C9.7393 6.0977 9.83996 6.16601 9.92419 6.25211L15.3242 11.3521C15.4113 11.4361 15.4806 11.5367 15.5279 11.6481C15.5752 11.7594 15.5996 11.8791 15.5996 12.0001C15.5996 12.1211 15.5752 12.2408 15.5279 12.3522C15.4806 12.4635 15.4113 12.5642 15.3242 12.6481L9.92419 17.7481C9.75228 17.9135 9.52173 18.0039 9.28322 17.9994C9.04471 17.9949 8.81774 17.8959 8.65219 17.7241Z" fill="#263238"/>
</svg>
