<svg width="60" height="40" viewBox="0 0 60 40" fill="none" xmlns="http://www.w3.org/2000/svg">
<path d="M5.07489 28.555C5.07434 28.6753 5.03885 28.7926 4.9729 28.8923C4.90695 28.992 4.81351 29.0694 4.70438 29.1149C4.59526 29.1604 4.47537 29.1719 4.35985 29.1479C4.24434 29.1239 4.1384 29.0655 4.05543 28.9801C3.97246 28.8946 3.91619 28.7861 3.89373 28.668C3.87127 28.55 3.88363 28.4278 3.92925 28.3169C3.97487 28.2061 4.0517 28.1115 4.15002 28.0452C4.24834 27.9788 4.36374 27.9437 4.48162 27.9443C4.5599 27.9447 4.63733 27.9607 4.70951 27.9916C4.78168 28.0225 4.84719 28.0676 4.90228 28.1243C4.95737 28.181 5.00097 28.2483 5.03058 28.3222C5.0602 28.3961 5.07526 28.4752 5.07489 28.555Z" fill="#E0E0E0"/>
<path d="M3.28888 27.7737C3.44093 27.607 3.62453 27.4735 3.82858 27.3812C4.03264 27.289 4.25291 27.2399 4.4761 27.2369C4.69928 27.2339 4.92075 27.2771 5.12711 27.3638C5.33348 27.4506 5.52045 27.5791 5.67675 27.7416C5.98078 28.0545 6.45669 27.5738 6.15266 27.2609C5.93399 27.0356 5.67327 26.8572 5.3859 26.7363C5.09853 26.6154 4.79032 26.5544 4.47947 26.5569C4.16862 26.5595 3.86142 26.6255 3.57599 26.7511C3.29056 26.8767 3.03269 27.0594 2.81759 27.2883C2.52096 27.6068 2.99132 28.0932 3.28888 27.7737Z" fill="#E0E0E0"/>
<path d="M1.26671 24.9471C2.17233 24.1488 3.2526 23.6464 4.46316 23.6436C5.66937 23.6289 6.83567 24.0839 7.72431 24.916C8.0385 25.2166 8.51533 24.7369 8.20021 24.4353C7.18553 23.476 5.85037 22.9475 4.46686 22.9574C3.07332 22.9574 1.83595 23.5418 0.795421 24.4588C0.46829 24.7473 0.941428 25.2308 1.26671 24.9442V24.9471Z" fill="#E0E0E0"/>
<path d="M2.06523 26.5135C2.36715 26.1701 2.73555 25.8942 3.1472 25.7031C3.55885 25.5121 4.00484 25.4101 4.45706 25.4035C4.90928 25.397 5.35793 25.486 5.77474 25.665C6.19155 25.8441 6.56748 26.1092 6.87885 26.4438C7.18011 26.7595 7.65602 26.2779 7.35476 25.9631C6.98145 25.5648 6.53188 25.2489 6.03393 25.0351C5.53599 24.8213 5.00028 24.7141 4.46005 24.7202C3.91981 24.7263 3.38657 24.8456 2.89338 25.0706C2.4002 25.2955 1.95759 25.6215 1.59301 26.0281C1.301 26.3505 1.77136 26.8368 2.06523 26.5135Z" fill="#E0E0E0"/>
<path d="M59.9999 1.40112V12.3664H44.5583L44.002 1.47747L59.9999 1.40112Z" fill="#E0E0E0"/>
<path d="M44.002 1.47747V12.3438L59.4436 12.3438V1.47747L44.002 1.47747Z" fill="white"/>
<path d="M59.5173 12.4182H43.9287V1.40302H59.5173V12.4182ZM44.0747 12.2693H59.3704V1.55288H44.0747V12.2693Z" fill="#E0E0E0"/>
<path d="M57.7717 2.82809H45.6743V10.9941H57.7717V2.82809Z" fill="white"/>
<path d="M57.771 2.82808H57.7118H57.54L56.8755 2.8328L54.3805 2.84222L45.6727 2.86013L45.7078 2.82431C45.7078 5.31915 45.7078 8.08355 45.7078 10.9893L45.6699 10.9497L57.7664 10.9582L57.7368 10.9893C57.7433 8.50392 57.7488 6.46525 57.7525 5.05148C57.7525 4.34176 57.758 3.78851 57.7599 3.40867C57.7599 3.22017 57.7599 3.07691 57.7599 2.977C57.7599 2.87709 57.7599 2.82714 57.7599 2.82714C57.7599 2.82714 57.7599 2.87427 57.7599 2.9704C57.7599 3.06654 57.7599 3.21074 57.7599 3.39642C57.7599 3.77343 57.7599 4.32574 57.7673 5.03169C57.7673 6.45583 57.7765 8.4992 57.783 10.9931V11.0242H57.7525L45.656 11.0317H45.6182V10.9931C45.6182 8.08732 45.6182 5.32292 45.6182 2.82808V2.79227H45.6533L54.3842 2.80923L56.8691 2.8196H57.5261H57.6943C57.7534 2.8262 57.771 2.82808 57.771 2.82808Z" fill="#E0E0E0"/>
<path d="M44.0018 1.4473C44.0968 1.49472 44.1858 1.55357 44.2671 1.6226C44.4251 1.73948 44.6367 1.90536 44.8723 2.09386C45.108 2.28237 45.3094 2.46239 45.4536 2.59717C45.5366 2.66423 45.6108 2.74183 45.6745 2.82808C45.6597 2.84411 45.2891 2.53213 44.8252 2.15418C44.3613 1.77623 43.988 1.46803 44.0018 1.4473Z" fill="#E0E0E0"/>
<path d="M59.4433 1.47746C59.4562 1.49442 59.093 1.81017 58.631 2.1834C58.1689 2.55664 57.7845 2.84316 57.7706 2.82808C57.7568 2.813 58.1218 2.49538 58.5839 2.12214C59.0459 1.7489 59.4303 1.46049 59.4433 1.47746Z" fill="#E0E0E0"/>
<path d="M59.4316 12.3456L57.71 10.9224L59.4316 12.3456Z" fill="white"/>
<path d="M57.7098 10.9224C57.7227 10.9055 58.1192 11.2108 58.5942 11.6029C59.0691 11.995 59.4443 12.3287 59.4314 12.3456C59.4185 12.3626 59.022 12.0572 58.5461 11.6642C58.0702 11.2712 57.6969 10.9384 57.7098 10.9224Z" fill="#E0E0E0"/>
<path d="M44.0018 12.3437C43.9889 12.3268 44.3483 12.0139 44.8058 11.6453C45.2632 11.2768 45.6439 10.9912 45.6569 11.0082C45.6698 11.0252 45.3103 11.3381 44.8529 11.7066C44.3955 12.0751 44.0147 12.3607 44.0018 12.3437Z" fill="#E0E0E0"/>
<path d="M48.1306 5.37193V8.10617H55.7424V5.37193H48.1306Z" fill="#E0E0E0"/>
<path d="M56.589 29.5418C57.1324 29.2591 57.7728 29.2186 58.3762 29.3204C58.7006 29.375 59.0388 29.474 59.2596 29.7219C59.4805 29.9697 59.5221 30.408 59.2689 30.621C59.1182 30.7483 58.9075 30.7681 58.7144 30.7652C58.2422 30.7596 57.7173 30.671 57.3403 30.965C57.125 31.13 56.9817 31.4052 56.7239 31.4872C56.4661 31.5692 56.1879 31.4146 56.0539 31.1828C55.9325 30.9422 55.9057 30.6634 55.9791 30.4033C56.0087 30.2214 56.0791 30.049 56.1849 29.8996C56.2907 29.7501 56.429 29.6277 56.589 29.5418Z" fill="#EBEBEB"/>
<path d="M55.3435 27.0885C55.6752 27.5729 56.3221 27.4127 56.6215 27.1167C56.9209 26.8208 57.0475 26.3929 57.163 25.9857C57.4264 25.0526 57.6925 24.0724 57.4966 23.1224C57.4491 22.8341 57.3248 22.5648 57.1372 22.3438C57.0424 22.2349 56.9212 22.1533 56.7858 22.1071C56.6504 22.061 56.5055 22.0519 56.3655 22.0809C56.0393 22.1695 55.837 22.4946 55.691 22.8038C55.2593 23.7181 55.0332 24.7193 55.0293 25.7341C55.0293 26.2053 55.082 26.7011 55.3435 27.0904" fill="#EBEBEB"/>
<path d="M54.4293 27.7831C54.7906 27.3467 54.859 26.7086 54.6982 26.162C54.5374 25.6153 54.1752 25.1488 53.7566 24.768C53.2644 24.3211 52.6916 23.9763 52.0701 23.7529C51.8295 23.6536 51.5706 23.6089 51.3114 23.6219C51.1819 23.6295 51.0562 23.6693 50.9452 23.7378C50.8343 23.8063 50.7414 23.9014 50.6747 24.0149C50.4973 24.3599 50.6673 24.7784 50.8521 25.1205C51.1774 25.7224 51.5481 26.2975 51.9611 26.8406C52.2937 27.277 52.6735 27.7077 53.1799 27.9056C53.6863 28.1035 54.2112 28.079 54.4801 27.7218" fill="#EBEBEB"/>
<path d="M55.3201 34.3949C55.3382 34.323 55.3484 34.2494 55.3506 34.1752C55.3654 34.015 55.3848 33.8143 55.4079 33.5749C55.4369 33.279 55.481 32.9848 55.54 32.6936C55.6175 32.34 55.7225 31.9933 55.8542 31.6568C55.9831 31.3192 56.1583 31.0019 56.3745 30.7143C56.5509 30.4809 56.776 30.2903 57.0334 30.1564C57.208 30.0683 57.3951 30.0088 57.5878 29.9801C57.6604 29.977 57.7325 29.9665 57.8031 29.949C57.7304 29.9407 57.6569 29.9407 57.5841 29.949C57.3842 29.9647 57.1886 30.0168 57.0066 30.1026C56.7353 30.2341 56.4975 30.4276 56.3116 30.6681C56.0866 30.9592 55.9047 31.2825 55.772 31.6276C55.6387 31.9704 55.5346 32.3242 55.4606 32.6851C55.4045 32.9797 55.3663 33.2774 55.346 33.5768C55.3275 33.8322 55.3201 34.0386 55.3164 34.1818C55.3108 34.2528 55.3121 34.3241 55.3201 34.3949Z" fill="#E0E0E0"/>
<path d="M55.3608 33.933C55.3663 33.8994 55.3682 33.8653 55.3664 33.8312V33.5391C55.3664 33.2855 55.3664 32.9189 55.3784 32.4655C55.4006 31.5598 55.4773 30.5852 55.6251 29.211C55.7647 27.9179 55.9523 26.4146 56.1509 25.4362C56.1935 25.2138 56.236 25.014 56.2757 24.8387C56.3154 24.6634 56.3478 24.5116 56.3792 24.3891C56.4106 24.2666 56.4282 24.1799 56.4457 24.1063C56.4556 24.0739 56.4615 24.0403 56.4633 24.0064C56.4482 24.0364 56.4364 24.068 56.4282 24.1007C56.4069 24.1742 56.3792 24.2666 56.3459 24.3834C56.3127 24.5003 56.2711 24.6558 56.2277 24.8302C56.1842 25.0046 56.1352 25.2072 56.089 25.4268C55.8429 26.5833 55.6578 27.7525 55.5346 28.9292C55.3867 30.3062 55.3202 31.5598 55.3137 32.4684C55.3091 32.9226 55.3137 33.2902 55.3294 33.5438C55.3368 33.6625 55.3424 33.7587 55.347 33.835C55.348 33.8681 55.3526 33.901 55.3608 33.933Z" fill="#E0E0E0"/>
<path d="M55.3671 31.5145C55.3744 31.4129 55.3744 31.3108 55.3671 31.2091C55.3561 31.0131 55.3302 30.7294 55.2747 30.3825C55.2085 29.9763 55.1199 29.5741 55.0095 29.178C54.8809 28.6911 54.7159 28.215 54.516 27.7539C54.173 26.9031 53.6818 26.1227 53.0661 25.4504C52.959 25.3353 52.8448 25.2274 52.7242 25.1271C52.6725 25.0818 52.6263 25.0375 52.5791 25.0017L52.447 24.9075C52.3675 24.8458 52.2831 24.7909 52.1947 24.7435C52.1809 24.7633 52.5514 24.9857 53.0199 25.4975C53.6159 26.1748 54.094 26.951 54.4338 27.7925C54.63 28.2519 54.7958 28.7243 54.93 29.2063C55.0425 29.5986 55.135 29.9965 55.2073 30.3986C55.2692 30.7416 55.3052 31.0225 55.3265 31.2167C55.3321 31.3169 55.3457 31.4165 55.3671 31.5145Z" fill="#E0E0E0"/>
<path d="M53.0747 35.7813L53.3122 39.1018H57.4947L57.7322 35.7813H53.0747Z" fill="#E0E0E0"/>
<path d="M58.2312 34.4721H52.6709V35.7813H58.2312V34.4721Z" fill="#E0E0E0"/>
<path d="M52.6709 38.9745V39.3374H52.9324H58.1397V38.9745H52.6709Z" fill="#EBEBEB"/>
<path d="M53.1883 39.9755L52.9324 39.3374H57.9401L57.6416 39.9755H53.1883Z" fill="#E0E0E0"/>
<path d="M57.6546 36.8661C57.6496 36.8771 57.6431 36.8873 57.6352 36.8963C57.6185 36.9189 57.5982 36.9472 57.5723 36.9811L57.3293 37.2997L57.3182 37.3138L57.308 37.2988L56.7092 36.4505H56.7434L56.1548 37.2988L56.1363 37.3252L56.115 37.3006L55.4164 36.4524H55.4561L55.4182 36.5023L54.7936 37.3006L54.7723 37.328L54.7529 37.2997L54.1633 36.4514H54.1975L53.4721 37.295L53.4592 37.3101L53.449 37.294L53.2217 36.9067C53.1976 36.8643 53.1782 36.8303 53.1635 36.803C53.1487 36.7757 53.144 36.7672 53.1459 36.7662C53.1553 36.7761 53.1634 36.7872 53.1699 36.7992L53.2346 36.8991C53.2928 36.9934 53.3723 37.1206 53.473 37.2809H53.4499L54.1652 36.4269L54.1827 36.4053L54.1994 36.4288C54.3842 36.6861 54.5801 36.9708 54.7936 37.2771H54.7538L55.3776 36.4769L55.4155 36.4269L55.4358 36.4015L55.4561 36.4269L56.1529 37.2752H56.1141L56.7092 36.4269L56.7268 36.4015L56.7434 36.4269L57.3293 37.2799H57.308L57.5622 36.9708C57.589 36.9378 57.6121 36.9114 57.6296 36.8907C57.6472 36.8699 57.6536 36.8652 57.6546 36.8661Z" fill="#F5F5F5"/>
<path d="M57.7902 35.7587C57.7902 35.7738 56.7423 35.786 55.4504 35.786C54.1585 35.786 53.1143 35.7757 53.1143 35.7587C53.1143 35.7417 54.1622 35.7323 55.455 35.7323C56.7478 35.7323 57.7902 35.7446 57.7902 35.7587Z" fill="#F5F5F5"/>
<path d="M58.002 39.3732C58.002 39.3874 56.8625 39.3996 55.4579 39.3996C54.0533 39.3996 52.9148 39.3874 52.9148 39.3732C52.9148 39.3591 54.0533 39.3468 55.4579 39.3468C56.8625 39.3468 58.002 39.3572 58.002 39.3732Z" fill="#F5F5F5"/>
<path d="M1.42766 32.2544V36.5466H0.725342V37.0132H1.42766V39.8859H14.5628V37.2714H13.5897V36.7059H14.5628V35.852H14.9953V35.4637H14.4815V32.2591L1.42766 32.2544Z" fill="#F5F5F5"/>
<path d="M11.0752 32.2666V39.8379H14.5627V37.2243H13.5897V36.7021L14.5627 36.72V35.8661H15.0035L14.9952 35.425L14.4814 35.4118V32.2544L11.0752 32.2666Z" fill="#E0E0E0"/>
<path d="M11.3235 36.951C11.3235 36.9774 8.94672 36.999 6.01548 36.999C3.08425 36.999 0.706543 36.9774 0.706543 36.951C0.706543 36.9246 3.0824 36.9038 6.01548 36.9038C8.94857 36.9038 11.3235 36.9255 11.3235 36.951Z" fill="#E0E0E0"/>
<path d="M11.3235 36.5155C11.3235 36.5419 8.94672 36.5626 6.01548 36.5626C3.08425 36.5626 0.706543 36.5419 0.706543 36.5155C0.706543 36.4891 3.0824 36.4674 6.01548 36.4674C8.94857 36.4674 11.3235 36.4891 11.3235 36.5155Z" fill="#E0E0E0"/>
<path d="M12.005 35.3421C12.005 35.3685 9.62817 35.3892 6.69693 35.3892C3.7657 35.3892 1.38892 35.3685 1.38892 35.3421C1.38892 35.3157 3.76477 35.294 6.69693 35.294C9.6291 35.294 12.005 35.3157 12.005 35.3421Z" fill="#E0E0E0"/>
<path d="M12.0703 38.5391C12.0703 38.5655 9.69351 38.5872 6.76228 38.5872C3.83104 38.5872 1.45703 38.5655 1.45703 38.5391C1.45703 38.5127 3.83289 38.492 6.76505 38.492C9.69721 38.492 12.0703 38.5137 12.0703 38.5391Z" fill="#E0E0E0"/>
<path d="M7.26345 28.5607C7.34388 28.5223 7.43575 28.5172 7.51981 28.5463C7.60387 28.5755 7.67361 28.6367 7.71441 28.7171L13.0649 39.328H23.23C23.3983 39.3282 23.5597 39.3965 23.6787 39.5179C23.7977 39.6393 23.8646 39.8038 23.8649 39.9755H12.541L7.10266 29.0357C7.082 28.9939 7.06977 28.9482 7.06669 28.9015C7.06361 28.8547 7.06975 28.8078 7.08474 28.7636C7.09973 28.7193 7.12326 28.6785 7.15396 28.6437C7.18465 28.6088 7.22189 28.5806 7.26345 28.5607Z" fill="#263238"/>
<path d="M52.8767 25.1978C52.8767 25.211 50.8077 25.2223 48.2562 25.2223C45.7048 25.2223 43.6357 25.211 43.6357 25.1978C43.6357 25.1846 45.7048 25.1733 48.2562 25.1733C50.8077 25.1733 52.8767 25.1836 52.8767 25.1978Z" fill="#263238"/>
<path d="M57.0048 24.3476C57.0048 24.3608 54.5874 24.3721 51.6072 24.3721C48.627 24.3721 46.2104 24.3608 46.2104 24.3476C46.2104 24.3344 48.626 24.3231 51.6072 24.3231C54.5883 24.3231 57.0048 24.3335 57.0048 24.3476Z" fill="#263238"/>
<path d="M34.6693 28.0658H12.4429L15.9489 9.55011L38.1032 9.85266L34.6693 28.0658Z" fill="#FAFAFA"/>
<path d="M15.9489 9.55011L15.6587 11.0855L37.825 11.3249L38.1032 9.85266L15.9489 9.55011Z" fill="#EBEBEB"/>
<path d="M34.6694 28.0659C34.6694 28.0659 34.6897 27.9518 34.7304 27.7322C34.771 27.5126 34.832 27.1856 34.9106 26.7605L35.6009 23.0715C36.1978 19.8914 37.0526 15.3428 38.083 9.8489L38.1024 9.87341L15.949 9.57369L15.973 9.55389L15.9379 9.7424C14.6802 16.3749 13.4937 22.636 12.4642 28.0715L12.443 28.0451L28.5121 28.0555L33.0531 28.0621H34.2545H34.6685H34.5659H34.2628H33.0614L28.5241 28.0677L12.4448 28.0791H12.4189L12.4236 28.0527C13.4521 22.6172 14.6368 16.356 15.8926 9.72261L15.9277 9.5341V9.51337H15.9481L38.1015 9.81968H38.1255L38.1209 9.84325C37.0813 15.3372 36.2191 19.8924 35.6166 23.0734C35.3153 24.6615 35.0787 25.9075 34.917 26.7567C34.8366 27.1799 34.7747 27.5041 34.7322 27.7237C34.6897 27.9433 34.6694 28.0659 34.6694 28.0659Z" fill="#263238"/>
<path d="M25.846 25.7548C25.846 25.768 23.776 25.7793 21.2255 25.7793C18.675 25.7793 16.605 25.768 16.605 25.7548C16.605 25.7416 18.6731 25.7294 21.2255 25.7294C23.7778 25.7294 25.846 25.7407 25.846 25.7548Z" fill="#263238"/>
<path d="M31.4517 24.9047C31.4517 24.9179 28.7043 24.9292 25.3156 24.9292C21.927 24.9292 19.1787 24.9179 19.1787 24.9047C19.1787 24.8915 21.9261 24.8802 25.3156 24.8802C28.7052 24.8802 31.4517 24.8905 31.4517 24.9047Z" fill="#263238"/>
<path d="M26.1558 4.62546C26.1558 4.6396 24.0867 4.64996 21.5353 4.64996C18.9838 4.64996 16.9148 4.6396 16.9148 4.62546C16.9148 4.61132 18.9838 4.60095 21.5353 4.60095C24.0867 4.60095 26.1558 4.61226 26.1558 4.62546Z" fill="#263238"/>
<path d="M31.7622 3.77533C31.7622 3.78947 29.0149 3.79983 25.6262 3.79983C22.2375 3.79983 19.4893 3.78947 19.4893 3.77533C19.4893 3.76119 22.2357 3.75082 25.6262 3.75082C29.0167 3.75082 31.7622 3.76213 31.7622 3.77533Z" fill="#263238"/>
<path d="M21.561 16.6906L23.2614 14.8263L24.338 16.6906H21.561Z" fill="#E0E0E0"/>
<path d="M23.0008 20.0677L21.561 20.0271L22.2837 16.455L23.6245 16.4437L23.0008 20.0677Z" fill="#E0E0E0"/>
<path d="M30.4943 18.6209L28.7939 20.4852L27.7183 18.6209H30.4943Z" fill="#E0E0E0"/>
<path d="M29.0544 15.2439L30.4942 15.2835L29.7715 18.8565L28.4307 18.8669L29.0544 15.2439Z" fill="#E0E0E0"/>
<path d="M29.7215 13.4879C29.7215 13.5011 28.4185 13.5124 26.8106 13.5124C25.2027 13.5124 23.9006 13.5011 23.9006 13.4879C23.9006 13.4747 25.2036 13.4634 26.8106 13.4634C28.4176 13.4634 29.7215 13.4738 29.7215 13.4879Z" fill="#E0E0E0"/>
<path d="M23.3059 20.9338C23.3059 20.947 22.7469 20.9583 22.0575 20.9583C21.3681 20.9583 20.8081 20.947 20.8081 20.9338C20.8081 20.9206 21.3672 20.9093 22.0575 20.9093C22.7478 20.9093 23.3059 20.9206 23.3059 20.9338Z" fill="#E0E0E0"/>
<path d="M23.9071 21.6436C23.9071 21.6577 22.9516 21.6681 21.7734 21.6681C20.5952 21.6681 19.6396 21.6577 19.6396 21.6436C19.6396 21.6294 20.5952 21.619 21.7734 21.619C22.9516 21.619 23.9071 21.6304 23.9071 21.6436Z" fill="#E0E0E0"/>
<path d="M29.818 20.9338C29.818 20.947 29.3559 20.9583 28.7867 20.9583C28.2174 20.9583 27.7554 20.947 27.7554 20.9338C27.7554 20.9206 28.2174 20.9093 28.7867 20.9093C29.3559 20.9093 29.818 20.9206 29.818 20.9338Z" fill="#E0E0E0"/>
<path d="M30.4506 21.6548C30.4506 21.669 29.4951 21.6794 28.3168 21.6794C27.1386 21.6794 26.1831 21.669 26.1831 21.6548C26.1831 21.6407 27.1377 21.6303 28.3168 21.6303C29.496 21.6303 30.4506 21.6379 30.4506 21.6548Z" fill="#E0E0E0"/>
<path d="M37.7253 7.76028C37.1762 8.13435 36.7094 8.62077 36.3545 9.18866C35.9996 9.75655 35.7643 10.3935 35.6637 11.0591C35.538 11.9328 35.6516 12.8244 35.5943 13.7066C35.5195 14.8697 35.1517 16.0563 35.4631 17.1779C35.6664 17.9121 36.1525 18.5455 36.7504 19.0045C37.3483 19.4635 38.0524 19.7585 38.7742 19.9612C39.5329 20.1742 40.3608 20.2835 41.0937 19.9913C42.0178 19.6219 42.6064 18.6991 43.1017 17.8179C43.597 16.9366 44.1182 15.9922 44.9924 15.5144" fill="#263238"/>
<path d="M57.5934 18.7208C59.0165 18.6737 59.3492 18.0874 59.3492 18.0874C59.3492 18.0874 59.327 16.5408 59.3436 15.9196C59.3621 15.2505 59.3279 14.454 59.3436 13.8339C58.8816 14.4616 57.5223 14.6821 56.88 14.2523C56.2378 13.8225 55.6389 12.7566 54.3729 12.1976C53.1633 11.6632 51.6117 12.4191 50.7542 12.4125C48.7378 12.3975 49.4281 9.68584 47.5023 9.07321C46.8378 8.86208 45.5617 9.09583 44.9092 8.83758C43.8927 8.43418 43.3494 6.8517 42.3597 6.38703C41.5788 6.0204 39.8018 5.90352 39.0745 6.36913C38.3472 6.83473 38.0044 7.02889 37.6042 7.80175L41.9327 16.0111C42.2988 16.7141 42.8044 17.3317 43.4174 17.8244C44.0305 18.317 44.7375 18.674 45.4933 18.8726C46.2418 19.0611 46.9515 19.3759 47.3479 19.7613C48.1528 20.5436 49.0908 21.407 50.1979 21.3052C51.0406 21.227 51.7383 20.5936 52.5626 20.3975C53.5874 20.1525 54.6308 20.6077 55.6121 20.9942C56.6139 21.3881 57.7736 21.7114 58.7227 21.1827L58.3706 19.4522C57.3869 19.3847 56.4569 18.9705 55.7397 18.2807C56.2562 18.3938 57.0676 18.7387 57.5934 18.7208Z" fill="#263238"/>
<path d="M36.3208 11.2485C36.489 9.75182 37.5564 7.96009 39.0155 8.19478L43.5381 9.61421C43.7519 9.64838 43.9454 9.76328 44.0801 9.93611C44.2148 10.1089 44.2809 10.3271 44.2653 10.5473L42.9716 21.3221C42.7285 21.5436 39.8629 24.2119 39.8629 24.2119L38.1589 21.0347C38.1589 21.0347 38.2337 19.1327 38.2319 19.1449C38.23 19.1572 36.3671 18.7283 36.1018 16.2052C35.9706 14.946 36.1342 12.9121 36.3208 11.2485Z" fill="#FFBE9D"/>
<path d="M36.8815 13.2165C36.8763 13.3001 36.9034 13.3825 36.9569 13.446C37.0104 13.5096 37.0861 13.5493 37.1679 13.5568C37.2079 13.562 37.2485 13.5591 37.2873 13.5481C37.3261 13.5371 37.3623 13.5184 37.3939 13.4929C37.4255 13.4674 37.4518 13.4358 37.4712 13.3998C37.4907 13.3638 37.5029 13.3243 37.5071 13.2834C37.5122 13.1999 37.4851 13.1177 37.4316 13.0543C37.3781 12.9909 37.3024 12.9513 37.2206 12.9441C37.1807 12.9386 37.1401 12.9413 37.1013 12.9521C37.0624 12.9629 37.0261 12.9816 36.9944 13.007C36.9628 13.0324 36.9365 13.0641 36.9171 13.1001C36.8977 13.136 36.8856 13.1756 36.8815 13.2165Z" fill="#263238"/>
<path d="M36.732 12.5341C36.7689 12.5784 37.0166 12.4107 37.3548 12.4295C37.693 12.4484 37.9333 12.634 37.9721 12.5935C37.9906 12.5756 37.9545 12.4993 37.851 12.4116C37.7095 12.3005 37.5378 12.2367 37.3594 12.2288C37.1832 12.2193 37.0086 12.2668 36.8604 12.3645C36.7523 12.4408 36.7135 12.5143 36.732 12.5341Z" fill="#263238"/>
<path d="M40.0995 13.421C40.0944 13.5048 40.1216 13.5873 40.1753 13.6509C40.229 13.7144 40.3049 13.7541 40.3869 13.7613C40.4268 13.7665 40.4673 13.7636 40.506 13.7527C40.5448 13.7418 40.581 13.7231 40.6126 13.6978C40.6441 13.6724 40.6705 13.6409 40.6899 13.605C40.7094 13.5691 40.7217 13.5297 40.726 13.4889C40.7309 13.4052 40.7036 13.3229 40.65 13.2593C40.5963 13.1958 40.5205 13.1561 40.4386 13.1487C40.3987 13.1433 40.3582 13.1461 40.3194 13.1569C40.2806 13.1678 40.2443 13.1865 40.2127 13.2119C40.1811 13.2372 40.1548 13.2688 40.1353 13.3048C40.1159 13.3407 40.1037 13.3802 40.0995 13.421Z" fill="#263238"/>
<path d="M40.1071 12.7198C40.144 12.7641 40.3917 12.5963 40.7308 12.6152C41.07 12.634 41.3084 12.8188 41.3472 12.7792C41.3666 12.7613 41.3306 12.6849 41.2262 12.5973C41.0847 12.486 40.913 12.4221 40.7345 12.4144C40.5586 12.4047 40.3842 12.4522 40.2365 12.5501C40.1283 12.6265 40.0895 12.7 40.1071 12.7198Z" fill="#263238"/>
<path d="M38.6706 15.0685C38.6706 15.0497 38.4645 15.0016 38.1253 14.9394C38.0394 14.9253 37.9581 14.9036 37.9461 14.8452C37.9437 14.7534 37.9685 14.6631 38.0172 14.586C38.1096 14.3767 38.206 14.1568 38.3065 13.9262C38.7094 12.9837 39.006 12.2146 38.969 12.1986C38.9321 12.1826 38.5754 12.929 38.1725 13.8678C38.0745 14.0987 37.9821 14.3192 37.8952 14.5275C37.8573 14.6218 37.7954 14.7368 37.8324 14.8716C37.8436 14.9032 37.8617 14.9319 37.8852 14.9556C37.9087 14.9792 37.9371 14.9972 37.9682 15.0082C38.0156 15.0238 38.0646 15.0333 38.1142 15.0365C38.4552 15.0761 38.6678 15.0883 38.6706 15.0685Z" fill="#263238"/>
<path d="M38.2363 19.1449C39.3895 19.2224 40.541 18.9721 41.5631 18.422C41.5631 18.422 40.6473 20.0997 38.2021 19.7416L38.2363 19.1449Z" fill="#EB996E"/>
<path d="M39.9665 11.3852C39.9952 11.4795 40.3362 11.4531 40.7308 11.5228C41.1254 11.5926 41.4414 11.7198 41.4987 11.6388C41.5246 11.5992 41.4728 11.5077 41.3481 11.4107C41.1805 11.2892 40.9877 11.2086 40.7847 11.1751C40.5817 11.1416 40.3739 11.1561 40.1772 11.2174C40.0322 11.2702 39.9545 11.339 39.9665 11.3852Z" fill="#263238"/>
<path d="M36.7774 11.3569C36.8328 11.438 37.0703 11.3692 37.3513 11.3796C37.6322 11.3899 37.8669 11.4597 37.926 11.3796C37.9519 11.3409 37.9186 11.2599 37.8179 11.1807C37.683 11.0847 37.5232 11.0316 37.3587 11.0283C37.1942 11.0249 37.0324 11.0714 36.8938 11.1618C36.7894 11.2382 36.758 11.3174 36.7774 11.3569Z" fill="#263238"/>
<path d="M38.461 16.1355C38.5041 16.288 38.5685 16.4334 38.6523 16.5671C38.6943 16.634 38.7499 16.6909 38.8152 16.7342C38.8805 16.7774 38.9542 16.8059 39.0312 16.8179C39.1141 16.8223 39.1969 16.8053 39.2717 16.7684C39.3465 16.7315 39.4109 16.6759 39.459 16.6067C39.5539 16.4665 39.6027 16.2992 39.5985 16.1289C39.5985 15.9762 39.5394 15.7915 39.3915 15.766C39.3284 15.7605 39.2648 15.7712 39.2067 15.7971L38.4102 16.0799" fill="#EB996E"/>
<path d="M38.7419 16.8056C38.7419 16.7811 38.9147 16.8603 39.1605 16.7745C39.2997 16.7267 39.4167 16.6284 39.4895 16.4984C39.5308 16.419 39.5553 16.3317 39.5614 16.242C39.5674 16.1524 39.5549 16.0625 39.5246 15.9781C39.509 15.9348 39.4882 15.8936 39.4627 15.8556C39.4331 15.8207 39.4387 15.8226 39.4045 15.8254C39.3703 15.8282 39.3195 15.8546 39.277 15.8697L39.1467 15.9168C38.9757 15.9772 38.8214 16.0299 38.692 16.0723C38.4314 16.1572 38.2669 16.1996 38.2605 16.1817C38.254 16.1638 38.4055 16.0874 38.6569 15.9781C38.7826 15.9234 38.9341 15.8612 39.1014 15.7896L39.2308 15.7387C39.278 15.718 39.3264 15.7004 39.3758 15.6859C39.4145 15.6758 39.4554 15.6788 39.4923 15.6944C39.5255 15.7115 39.5539 15.7372 39.5745 15.7689C39.6079 15.8165 39.635 15.8685 39.6549 15.9234C39.6922 16.027 39.7067 16.1377 39.6974 16.2476C39.6881 16.3575 39.6553 16.464 39.6013 16.5596C39.5092 16.7136 39.361 16.8241 39.1892 16.8669C39.0783 16.8985 38.9609 16.8985 38.85 16.8669C38.7733 16.8424 38.7382 16.8141 38.7419 16.8056Z" fill="#263238"/>
<path d="M45.1346 11.733C45.1244 11.798 44.9997 11.8489 44.7742 11.8508C44.4548 11.8406 44.1406 11.7653 43.8501 11.6293C43.4061 11.4278 43.0123 11.1269 42.6978 10.749C42.5185 10.5332 42.3789 10.3155 42.2357 10.1628C42.1772 10.0951 42.1097 10.0361 42.0352 9.98746C41.9653 9.94623 41.8891 9.91754 41.8097 9.90264C41.5677 9.87051 41.3237 9.85602 41.0797 9.85928C40.3125 9.83242 39.5726 9.56263 38.9626 9.08736C38.7094 8.89402 38.493 8.65509 38.324 8.38236C38.2761 8.30718 38.2408 8.22435 38.2196 8.1373C38.2057 8.07415 38.2113 8.0308 38.2362 8.00912C38.3434 7.91487 38.6983 8.20893 39.3183 8.49546C39.4736 8.56426 39.6436 8.63495 39.8294 8.69622C40.026 8.7594 40.2267 8.80853 40.43 8.84325C40.6509 8.8801 40.8743 8.89839 41.0981 8.89791C41.4001 8.87968 41.703 8.89421 42.0019 8.94127C42.1956 8.97946 42.3805 9.05426 42.5471 9.16182C42.6981 9.26363 42.833 9.3882 42.9473 9.53129C43.1533 9.78671 43.2753 10.0205 43.3964 10.191C43.615 10.5095 43.8817 10.7907 44.1865 11.0242C44.7215 11.438 45.1568 11.5916 45.1346 11.733Z" fill="#263238"/>
<path d="M41.6938 10.3107C42.2002 11.2099 42.5023 12.2664 42.3545 13.2928C42.1623 14.618 42.5097 14.7066 43.0402 14.3089C44.3718 13.3051 44.1029 15.7933 44.4429 16.4889C44.8126 17.2429 45.696 17.5851 46.5194 17.6652C47.3428 17.7453 48.1828 17.6388 48.995 17.8169C49.6632 17.964 50.2758 18.2985 50.9246 18.5191C51.5733 18.7396 52.3107 18.8358 52.9206 18.5191C51.8755 18.472 50.9449 17.8546 50.1151 17.2062C49.2852 16.5577 48.4655 15.8395 47.4647 15.5313C46.962 15.3767 46.4085 15.3211 45.9945 14.9922C45.3051 14.4446 45.294 13.4116 45.2552 12.5209C45.2257 11.8187 45.136 11.1071 44.8579 10.4643C44.5797 9.82155 44.0918 9.24944 43.4477 8.99873C42.8036 8.74802 42.0033 8.87432 41.5459 9.40025" fill="#263238"/>
<path d="M43.4402 14.1119C43.479 14.1006 44.9881 13.8904 44.721 15.3871C44.4539 16.8838 43.0345 16.3023 43.0401 16.2589C43.0456 16.2156 43.4402 14.1119 43.4402 14.1119Z" fill="#FFBE9D"/>
<path d="M43.4592 15.7547C43.4666 15.7547 43.4814 15.7783 43.5211 15.8056C43.5771 15.8437 43.6454 15.8579 43.7115 15.8452C43.8769 15.816 44.0525 15.5898 44.1079 15.3211C44.1363 15.1936 44.1363 15.0613 44.1079 14.9338C44.1026 14.8844 44.0855 14.8371 44.0581 14.796C44.0307 14.755 43.9939 14.7214 43.9508 14.6981C43.9229 14.6847 43.8913 14.6817 43.8614 14.6897C43.8315 14.6976 43.8053 14.7159 43.7873 14.7415C43.7605 14.7801 43.7642 14.8112 43.7559 14.8122C43.7475 14.8131 43.7291 14.782 43.7559 14.7179C43.7708 14.6827 43.7968 14.6535 43.8298 14.635C43.8526 14.6232 43.8775 14.6161 43.9031 14.6142C43.9286 14.6122 43.9543 14.6155 43.9786 14.6237C44.0369 14.6469 44.0884 14.6852 44.1279 14.7347C44.1674 14.7843 44.1936 14.8434 44.204 14.9064C44.2431 15.048 44.2479 15.1971 44.2179 15.3409C44.1551 15.6407 43.9527 15.8951 43.73 15.9177C43.6884 15.9223 43.6464 15.9172 43.607 15.9028C43.5676 15.8885 43.532 15.8652 43.5027 15.8348C43.4555 15.7943 43.4537 15.7566 43.4592 15.7547Z" fill="#EB996E"/>
<path d="M42.5077 6.97799C42.5077 6.97799 42.4421 6.94029 42.3229 6.87242C42.1552 6.77765 41.9795 6.69817 41.798 6.63491C41.5293 6.54143 41.2497 6.4847 40.9663 6.4662C40.6194 6.4433 40.2711 6.47994 39.936 6.57459C39.6018 6.67221 39.2857 6.82572 39.0008 7.02888C38.6101 7.31034 38.2859 7.67707 38.0517 8.10241C37.9852 8.22305 37.9529 8.29091 37.9482 8.29091C37.9532 8.27296 37.9601 8.25559 37.9686 8.23907C37.9882 8.18921 38.0104 8.14044 38.0351 8.09298C38.1238 7.91758 38.2297 7.75179 38.3511 7.59816C38.6592 7.19797 39.059 6.88125 39.5154 6.67595C39.9718 6.47065 40.4708 6.38308 40.9682 6.42096C41.255 6.44179 41.5376 6.50268 41.8082 6.60192C41.9906 6.66801 42.1658 6.75297 42.3312 6.85546C42.3913 6.89033 42.4329 6.92426 42.4634 6.94406C42.4794 6.95359 42.4943 6.96497 42.5077 6.97799Z" fill="#455A64"/>
<path d="M59.3528 16.6426C59.3528 16.6426 59.0941 16.6878 58.6218 16.7227C58.3342 16.7424 58.0458 16.7459 57.7578 16.7331C57.5778 16.7231 57.3986 16.7027 57.2209 16.6718C57.021 16.6385 56.8249 16.5842 56.636 16.5097C56.4273 16.4282 56.2306 16.3182 56.051 16.1826C55.8606 16.0314 55.6821 15.8653 55.5169 15.6859C55.3429 15.4942 55.1537 15.3173 54.9513 15.1572C54.7341 14.9913 54.491 14.8639 54.2324 14.7802C54.1002 14.7332 53.962 14.7062 53.8221 14.7C53.6786 14.6959 53.5351 14.7054 53.3933 14.7283C53.0997 14.778 52.8112 14.8547 52.5311 14.9573C52.2437 15.0591 51.9573 15.1788 51.6689 15.3051C51.3741 15.4402 51.0559 15.5142 50.7328 15.5229C50.0908 15.544 49.4655 15.3117 48.9872 14.8744C48.5316 14.4512 48.2202 13.9319 47.809 13.5473C47.6137 13.3559 47.3861 13.202 47.1372 13.0931C46.9016 12.9928 46.6431 12.9624 46.3914 13.0054C46.1569 13.053 45.9282 13.1267 45.7094 13.225C45.5057 13.3159 45.2957 13.3912 45.081 13.4503C44.884 13.4991 44.6822 13.525 44.4795 13.5276C44.2987 13.5273 44.1184 13.5102 43.9407 13.4767C43.657 13.4194 43.3837 13.318 43.1303 13.176C42.9714 13.0843 42.8218 12.9766 42.6839 12.8546C42.6377 12.8122 42.6045 12.7773 42.5814 12.7547C42.5583 12.7321 42.5481 12.7189 42.5481 12.7189L42.5851 12.7509L42.6904 12.8452C42.8296 12.9637 42.9797 13.0682 43.1386 13.1571C43.392 13.2948 43.6642 13.3927 43.9463 13.4474C44.1222 13.4797 44.3007 13.4955 44.4795 13.4946C44.6795 13.4906 44.8785 13.4637 45.0727 13.4144C45.2855 13.3548 45.4937 13.2792 45.6956 13.1882C45.9165 13.0875 46.1477 13.0123 46.3849 12.9639C46.6438 12.9187 46.91 12.9488 47.1529 13.0506C47.4067 13.1616 47.6389 13.318 47.8386 13.5125C48.2562 13.9008 48.5695 14.4211 49.0186 14.8367C49.4883 15.2655 50.1019 15.493 50.7319 15.472C51.0486 15.4631 51.3605 15.3903 51.6495 15.258C51.9388 15.1327 52.2271 15.012 52.5154 14.9102C52.7986 14.8069 53.0902 14.7296 53.3868 14.6793C53.5315 14.6571 53.6777 14.648 53.8239 14.652C53.9679 14.6587 54.1101 14.6866 54.2462 14.7349C54.509 14.8199 54.756 14.9489 54.9772 15.1166C55.1805 15.2791 55.3706 15.4582 55.5455 15.652C55.7089 15.8303 55.8853 15.9957 56.0732 16.1468C56.2499 16.2806 56.4432 16.3899 56.648 16.472C56.8348 16.5466 57.0286 16.6012 57.2265 16.635C57.4028 16.6676 57.5808 16.6893 57.7597 16.7001C58.0462 16.7158 58.3334 16.7158 58.62 16.7001C58.8566 16.685 59.0395 16.6699 59.1634 16.6558L59.3057 16.6426H59.3528Z" fill="#455A64"/>
<path d="M51.9646 12.6491L51.935 12.6764C51.9059 12.7023 51.875 12.7259 51.8426 12.7471C51.7176 12.8307 51.5779 12.8889 51.4314 12.9187C51.1985 12.9642 50.9588 12.9587 50.7281 12.9026C50.4231 12.8216 50.1355 12.6835 49.8798 12.4955C49.5915 12.2985 49.3059 12.0431 48.9853 11.7914C48.6646 11.5398 48.2968 11.29 47.8542 11.1863C47.6268 11.1392 47.3938 11.1272 47.1629 11.1505C46.9255 11.1694 46.6843 11.208 46.4357 11.2316C46.182 11.2635 45.925 11.254 45.6742 11.2033C45.4165 11.1401 45.1773 11.0151 44.9765 10.8385C44.5653 10.486 44.3056 10.0157 44.0469 9.58687C43.9225 9.37418 43.7848 9.16986 43.6347 8.97517C43.4892 8.79048 43.3212 8.62546 43.1348 8.48412C42.7893 8.22172 42.391 8.04081 41.9686 7.95443C41.6014 7.87593 41.2222 7.87593 40.8551 7.95443C40.3197 8.07423 39.8283 8.34571 39.4375 8.73766C39.3314 8.84272 39.2328 8.95549 39.1427 9.07508L39.0752 9.16933C39.0681 9.18091 39.0597 9.19165 39.0503 9.20138C39.0568 9.18971 39.0639 9.17838 39.0715 9.16745L39.1353 9.0732C39.2234 8.94926 39.3214 8.83294 39.4282 8.72541C39.8186 8.32805 40.312 8.05244 40.8504 7.93087C41.2221 7.84786 41.6066 7.84433 41.9797 7.9205C42.4086 8.00629 42.8133 8.18853 43.1644 8.45396C43.3538 8.59711 43.5249 8.76399 43.6736 8.95067C43.8254 9.14708 43.9646 9.35329 44.0903 9.56802C44.35 9.99686 44.6069 10.4615 45.0144 10.8065C45.2089 10.9786 45.4413 11.1001 45.6918 11.1609C45.9376 11.2112 46.1897 11.2207 46.4385 11.1891C46.6843 11.1665 46.9264 11.1279 47.1657 11.11C47.401 11.0864 47.6384 11.0991 47.8699 11.1477C48.3236 11.2561 48.6951 11.5134 49.0158 11.7641C49.3364 12.0148 49.6211 12.2749 49.9057 12.4729C50.1562 12.6587 50.4381 12.7957 50.7374 12.8772C50.9641 12.9351 51.2003 12.9435 51.4304 12.9017C51.5757 12.8739 51.7147 12.8193 51.8407 12.7405C51.923 12.684 51.9618 12.6463 51.9646 12.6491Z" fill="#455A64"/>
<path d="M55.0023 10.9959C55.0023 10.9959 54.9515 11.0487 54.8462 11.1401C54.6918 11.2713 54.5253 11.3868 54.349 11.4851C54.0699 11.642 53.7702 11.7572 53.4591 11.8272C53.0465 11.923 52.6193 11.9345 52.2023 11.8612C51.4091 11.7191 50.6925 11.2909 50.1832 10.6547C49.9983 10.42 49.8394 10.158 49.6703 9.89601C49.5056 9.62307 49.3058 9.3739 49.0761 9.15519C48.8286 8.93704 48.5216 8.80122 48.1963 8.76593C47.8569 8.73669 47.5152 8.75285 47.1798 8.814C46.8327 8.8766 46.4821 8.91783 46.1301 8.93747C45.9512 8.9437 45.7722 8.92852 45.5969 8.89223C45.5534 8.88241 45.5105 8.87014 45.4684 8.85547C45.4259 8.84039 45.3825 8.83097 45.3418 8.81212L45.2226 8.75368C45.182 8.73615 45.1433 8.71435 45.1071 8.68865C44.9594 8.59287 44.828 8.47317 44.718 8.33426C44.6095 8.2 44.5124 8.05653 44.4279 7.90542C44.2569 7.60947 44.1137 7.30597 43.9409 7.02982C43.856 6.89328 43.7595 6.7646 43.6526 6.64527C43.5466 6.53103 43.4264 6.43153 43.2949 6.34932C43.1663 6.27005 43.0289 6.20677 42.8856 6.16082C42.745 6.11656 42.6009 6.08502 42.4549 6.06657C42.1748 6.03285 41.8918 6.03064 41.6112 6.05997C41.3386 6.08447 41.0771 6.12689 40.8267 6.17307C40.5762 6.21925 40.3369 6.26732 40.1096 6.32104C39.6998 6.41064 39.2992 6.53907 38.9129 6.70465C38.6221 6.83161 38.3512 7.00151 38.1089 7.2089C38.0618 7.25414 38.0165 7.29278 37.974 7.33614L37.8668 7.45395C37.803 7.53218 37.7531 7.60192 37.7125 7.65848L37.6311 7.7942L37.6016 7.83944C37.6016 7.83944 37.609 7.82247 37.6265 7.79137L37.7051 7.65282C37.7439 7.59533 37.7929 7.52464 37.8557 7.44452L37.9647 7.32105C38.0035 7.27676 38.0516 7.23717 38.0996 7.19099C38.3413 6.97923 38.6126 6.80546 38.9045 6.67543C39.292 6.5067 39.6942 6.37573 40.1059 6.28429C40.3332 6.22962 40.5735 6.17967 40.8239 6.13254C41.0743 6.08542 41.3368 6.03829 41.6112 6.01567C41.8947 5.98371 42.1807 5.98371 42.4642 6.01567C42.6127 6.03329 42.7593 6.06484 42.9022 6.10992C43.0492 6.15792 43.1901 6.22373 43.3217 6.30596C43.458 6.38936 43.5824 6.49148 43.6914 6.60945C43.8005 6.73058 43.8991 6.86113 43.9862 6.99966C44.1617 7.28241 44.305 7.58307 44.475 7.8762C44.5587 8.02487 44.6546 8.16612 44.7615 8.29844C44.8684 8.43322 44.996 8.5494 45.1394 8.64246C45.1744 8.6675 45.2119 8.68866 45.2512 8.70561L45.3677 8.76216C45.4065 8.78007 45.449 8.7895 45.4897 8.80363C45.5306 8.81787 45.5722 8.82982 45.6144 8.83945C45.7862 8.87503 45.9614 8.8899 46.1365 8.88375C46.8425 8.86584 47.5227 8.63021 48.2065 8.71409C48.5408 8.75034 48.8562 8.89013 49.1103 9.11466C49.3427 9.3374 49.5448 9.59101 49.7109 9.86868C49.881 10.1316 50.039 10.3927 50.2201 10.6227C50.721 11.2542 51.4284 11.6802 52.2125 11.8225C52.6251 11.8968 53.0481 11.8875 53.4572 11.7952C53.7667 11.7276 54.0654 11.6159 54.3444 11.4634C54.5206 11.3668 54.6879 11.2541 54.8443 11.1269C54.8988 11.0855 54.9367 11.0478 54.9644 11.0261C54.9922 11.0044 55.0023 10.9959 55.0023 10.9959Z" fill="#263238"/>
<path d="M58.5046 20.4126C58.4917 20.4188 58.4785 20.4241 58.4649 20.4287L58.3457 20.4701C58.2809 20.492 58.2149 20.5096 58.1479 20.5229C58.0565 20.5445 57.964 20.5605 57.8707 20.571C57.6164 20.5968 57.36 20.5934 57.1065 20.5606C56.7714 20.5155 56.4413 20.4382 56.1205 20.3297C55.7628 20.2147 55.3812 20.0601 54.9746 19.8867C54.5457 19.6964 54.1056 19.5337 53.6568 19.3994C53.1634 19.2449 52.6454 19.1889 52.1311 19.2345C51.8607 19.2642 51.5969 19.339 51.3503 19.456C51.1013 19.5891 50.8592 19.7351 50.6249 19.8933C50.3885 20.0561 50.128 20.179 49.8532 20.2571C49.7163 20.2898 49.5743 20.2941 49.4357 20.2696C49.2971 20.2452 49.1647 20.1925 49.0465 20.1148C48.8318 19.9542 48.6445 19.7587 48.492 19.5361C48.3443 19.3276 48.1769 19.1344 47.9921 18.9593C47.6225 18.6313 47.1669 18.4626 46.7464 18.3457C46.326 18.2288 45.9147 18.1628 45.5451 18.0827C45.214 18.0138 44.8899 17.9141 44.5766 17.7849C44.3403 17.6856 44.1185 17.5533 43.9178 17.3919C43.7924 17.2878 43.68 17.1685 43.5832 17.0365C43.5518 16.9904 43.5306 16.9536 43.5149 16.9291L43.4927 16.8914C43.502 16.9024 43.5107 16.9141 43.5185 16.9263L43.5916 17.0309C43.6907 17.1589 43.8039 17.275 43.9288 17.3768C44.1299 17.5345 44.3513 17.6633 44.5868 17.7594C44.9002 17.8879 45.2243 17.9873 45.5553 18.0563C45.9249 18.1336 46.3269 18.1987 46.7566 18.3136C47.1863 18.4286 47.6382 18.5964 48.0217 18.9329C48.2092 19.1092 48.3789 19.3044 48.5281 19.5154C48.6797 19.733 48.8651 19.924 49.077 20.0809C49.1899 20.1549 49.3162 20.2049 49.4484 20.2281C49.5807 20.2512 49.7162 20.247 49.8468 20.2156C50.1165 20.1389 50.3724 20.0183 50.6045 19.8584C50.8399 19.6986 51.0836 19.552 51.3346 19.4192C51.5859 19.3 51.8547 19.2235 52.1302 19.193C52.6505 19.1477 53.1746 19.2053 53.6735 19.3627C54.1236 19.4987 54.5649 19.6634 54.9949 19.8556C55.3997 20.03 55.7804 20.1864 56.1362 20.3033C56.4547 20.4124 56.7822 20.4919 57.1148 20.5408C57.3663 20.5752 57.6207 20.5812 57.8735 20.5587C57.9666 20.5497 58.0592 20.5352 58.1507 20.5154C58.2175 20.5034 58.2836 20.4873 58.3485 20.4673L58.4686 20.4305L58.5046 20.4126Z" fill="#455A64"/>
<path d="M38.2752 13.0864C38.2663 12.9703 38.2487 12.8549 38.2226 12.7415C38.1896 12.6084 38.137 12.4813 38.0664 12.3645C37.975 12.2102 37.8555 12.0752 37.7143 11.9667C37.5436 11.8346 37.3448 11.7455 37.134 11.7066C36.8923 11.6612 36.6431 11.6827 36.4123 11.7688C36.1574 11.8638 35.9358 12.0337 35.7755 12.257C35.6026 12.4965 35.5093 12.7862 35.5093 13.0836C35.5093 13.3811 35.6026 13.6707 35.7755 13.9102C35.9362 14.1333 36.1576 14.3034 36.4123 14.3994C36.6433 14.4846 36.8922 14.506 37.134 14.4616C37.3447 14.4223 37.5434 14.3332 37.7143 14.2014C37.8552 14.0927 37.9747 13.9578 38.0664 13.8037C38.1367 13.6868 38.1894 13.5597 38.2226 13.4267C38.2488 13.3133 38.2664 13.1979 38.2752 13.0817C38.276 13.0896 38.276 13.0975 38.2752 13.1053C38.2752 13.1232 38.2752 13.1458 38.2752 13.1732C38.2757 13.2101 38.2729 13.247 38.2669 13.2834C38.2618 13.3333 38.2532 13.3828 38.241 13.4314C38.2103 13.5668 38.1592 13.6965 38.0895 13.816C37.9232 14.1051 37.663 14.3257 37.354 14.4397C37.045 14.5537 36.7066 14.5537 36.3975 14.4399C36.1337 14.3427 35.9041 14.1678 35.7377 13.9375C35.5582 13.6899 35.4614 13.3901 35.4614 13.0822C35.4614 12.7743 35.5582 12.4745 35.7377 12.2269C35.8212 12.1089 35.9225 12.0052 36.038 11.9196C36.1476 11.8366 36.2687 11.7708 36.3975 11.7245C36.6342 11.6375 36.8895 11.6167 37.1367 11.6642C37.3334 11.703 37.5196 11.7842 37.6831 11.9021C37.8466 12.0201 37.9835 12.1723 38.0849 12.3485C38.1545 12.4676 38.2056 12.597 38.2364 12.7321C38.2486 12.781 38.2572 12.8308 38.2623 12.881C38.2683 12.9174 38.2711 12.9543 38.2706 12.9913C38.2706 13.0186 38.2706 13.0403 38.2706 13.0591C38.2733 13.068 38.2749 13.0772 38.2752 13.0864Z" fill="#455A64"/>
<path d="M41.9178 13.0864C41.9089 12.9703 41.8913 12.8549 41.8651 12.7415C41.8326 12.6083 41.7799 12.4811 41.7089 12.3645C41.6175 12.2102 41.498 12.0752 41.3568 11.9667C41.1862 11.8346 40.9873 11.7455 40.7765 11.7066C40.5348 11.6612 40.2856 11.6827 40.0548 11.7688C39.7999 11.8638 39.5783 12.0337 39.4181 12.257C39.2451 12.4965 39.1519 12.7862 39.1519 13.0836C39.1519 13.3811 39.2451 13.6707 39.4181 13.9102C39.4984 14.0248 39.5964 14.1254 39.7082 14.208C39.8139 14.2882 39.9307 14.3517 40.0548 14.3965C40.2858 14.4817 40.5348 14.5032 40.7765 14.4587C40.9872 14.4195 41.186 14.3304 41.3568 14.1986C41.4978 14.0899 41.6172 13.9549 41.7089 13.8009C41.7797 13.6841 41.8323 13.557 41.8651 13.4239C41.8913 13.3104 41.9089 13.1951 41.9178 13.0789C41.9191 13.0867 41.9191 13.0947 41.9178 13.1025C41.9178 13.1204 41.9178 13.143 41.9178 13.1703C41.9178 13.2073 41.9147 13.2442 41.9085 13.2806C41.9034 13.3305 41.8948 13.38 41.8826 13.4286C41.8519 13.564 41.8008 13.6937 41.7311 13.8131C41.5648 14.1022 41.3046 14.3229 40.9956 14.4369C40.6866 14.5508 40.3482 14.5509 40.0391 14.4371C39.7753 14.3398 39.5457 14.165 39.3793 13.9347C39.1998 13.6871 39.103 13.3873 39.103 13.0794C39.103 12.7715 39.1998 12.4717 39.3793 12.224C39.4628 12.106 39.5642 12.0023 39.6796 11.9168C39.7892 11.8338 39.9103 11.768 40.0391 11.7217C40.2772 11.6338 40.5342 11.613 40.783 11.6614C40.9796 11.7002 41.1658 11.7813 41.3293 11.8993C41.4928 12.0173 41.6298 12.1694 41.7311 12.3456C41.8007 12.4647 41.8519 12.5941 41.8826 12.7292C41.8948 12.7782 41.9035 12.8279 41.9085 12.8781C41.9147 12.9146 41.9178 12.9515 41.9178 12.9884C41.9178 13.0158 41.9178 13.0374 41.9178 13.0563C41.9203 13.0662 41.9203 13.0766 41.9178 13.0864Z" fill="#455A64"/>
<path d="M39.1677 12.7443C39.1603 12.7443 39.1308 12.6868 39.0541 12.6161C38.9567 12.521 38.8281 12.4663 38.6933 12.4626C38.5585 12.4589 38.4272 12.5066 38.325 12.5963C38.2446 12.6633 38.2113 12.7226 38.2048 12.7179C38.2204 12.6603 38.2526 12.6087 38.2972 12.5699C38.3491 12.5185 38.4106 12.4781 38.4779 12.4513C38.5453 12.4244 38.6173 12.4116 38.6896 12.4135C38.762 12.4154 38.8332 12.4321 38.8991 12.4625C38.965 12.493 39.0243 12.5365 39.0735 12.5907C39.1195 12.6309 39.1524 12.6845 39.1677 12.7443Z" fill="#455A64"/>
<path d="M43.3957 14.1157C43.3192 14.0743 43.2465 14.0261 43.1785 13.9715C43.0473 13.8772 42.8662 13.7509 42.6638 13.6133C42.4614 13.4757 42.2757 13.3541 42.1417 13.2665C42.0664 13.2229 41.995 13.1728 41.9282 13.1166C42.0088 13.1489 42.0862 13.189 42.1592 13.2363C42.2988 13.3164 42.4873 13.4342 42.6906 13.5718C42.8939 13.7095 43.0723 13.8433 43.1989 13.9488C43.2695 13.998 43.3354 14.0538 43.3957 14.1157Z" fill="#455A64"/>
<path d="M40.6389 14.2929C40.6088 14.301 40.5776 14.3045 40.5465 14.3032C40.4602 14.3053 40.3739 14.2968 40.2896 14.2778C40.0061 14.218 39.7528 14.057 39.5753 13.8238C39.3978 13.5905 39.3077 13.3003 39.3211 13.0054C39.3244 12.9171 39.3378 12.8295 39.3609 12.7443C39.3676 12.713 39.3788 12.6828 39.3941 12.6548C39.3732 12.7706 39.3603 12.8878 39.3553 13.0054C39.351 13.2904 39.442 13.5683 39.6134 13.7935C39.7847 14.0186 40.0262 14.1775 40.2979 14.2439C40.4103 14.2686 40.5242 14.285 40.6389 14.2929Z" fill="white"/>
<path d="M36.0511 13.9149C36.0272 13.9065 36.0049 13.8938 35.9855 13.8772C35.9302 13.8372 35.8793 13.7911 35.834 13.7396C35.6815 13.5681 35.5883 13.3503 35.5688 13.1196C35.5493 12.889 35.6044 12.6581 35.7258 12.4625C35.7617 12.4039 35.8039 12.3495 35.8515 12.3004C35.8678 12.2811 35.8872 12.2649 35.9088 12.2523C35.9162 12.2589 35.8377 12.3324 35.7554 12.4804C35.6457 12.6731 35.597 12.8956 35.6159 13.1176C35.6347 13.3395 35.7202 13.5502 35.8608 13.7208C35.967 13.8489 36.0557 13.9093 36.0511 13.9149Z" fill="white"/>
<path d="M47.6382 22.3976C48.0381 22.5575 48.4003 22.8019 48.7011 23.1145C49.0019 23.4272 49.2346 23.8012 49.3839 24.2119C49.8847 25.6087 50.7608 34.2733 50.7608 34.2733C50.7608 33.818 51.9261 35.262 51.7459 39.9755H46.874L44.9131 33.2035L47.6382 22.3976Z" fill="#FF9F1C"/>
<path d="M36.6653 21.2609C36.4398 21.2317 34.2017 22.0234 33.7858 22.734C33.37 23.4447 31.2492 30.7096 31.2492 30.7096L26.4744 31.4966C26.4744 31.4966 24.7833 31.4448 24.9145 33.2026C25.0457 34.9604 25.2989 36.3214 26.0382 36.8982C26.7775 37.475 27.5389 37.7182 27.9723 37.4957C28.3725 37.2903 28.3152 36.7502 28.3152 36.7502C28.3152 36.7502 32.359 37.6465 33.2129 36.8982C34.0668 36.1498 36.6653 21.2609 36.6653 21.2609Z" fill="#FF9F1C"/>
<path d="M43.5442 20.0036L43.5738 21.1346C43.5738 21.1346 47.3422 22.21 47.6398 22.3919C47.9374 22.5738 45.7399 34.8331 45.7399 34.8331C45.7399 34.8331 48.5861 38.294 48.7709 39.5353L48.8347 39.9755H32.6519L33.2396 35.3477L32.9624 30.4382L35.1377 21.7934L37.764 20.8424L37.7344 20.1874C37.7323 20.1493 37.7377 20.1112 37.7504 20.0753C37.7631 20.0395 37.7828 20.0066 37.8082 19.9787C37.8337 19.9508 37.8644 19.9284 37.8986 19.9129C37.9327 19.8974 37.9696 19.8892 38.007 19.8886L43.2577 19.7246C43.2946 19.7233 43.3313 19.7296 43.3658 19.743C43.4003 19.7564 43.4318 19.7767 43.4584 19.8027C43.4851 19.8287 43.5064 19.8598 43.5212 19.8943C43.5359 19.9288 43.5437 19.9659 43.5442 20.0036Z" fill="#FF9F1C"/>
<path d="M33.1601 33.9566C33.1613 33.9478 33.1613 33.9389 33.1601 33.9302C33.1601 33.9095 33.1601 33.8831 33.1537 33.8501C33.1472 33.7766 33.138 33.6748 33.1269 33.5456C33.1158 33.4165 33.0973 33.2516 33.0862 33.0631C33.0751 32.8746 33.0529 32.6616 33.0446 32.4241C33.0363 32.1865 33.0187 31.9273 33.0178 31.6484C33.0178 31.5079 33.0123 31.3656 33.0178 31.2157C33.0234 31.0659 33.0178 30.9141 33.0243 30.7567C33.0416 30.0764 33.0938 29.3975 33.1805 28.7228C33.2737 28.0487 33.4033 27.3804 33.5686 26.7209C33.6083 26.5701 33.6481 26.4221 33.6859 26.2788C33.7238 26.1356 33.7691 25.9961 33.8088 25.8641C33.8855 25.5965 33.9743 25.3524 34.05 25.128C34.087 25.0159 34.1249 24.9094 34.1637 24.8104L34.27 24.5277C34.3347 24.3505 34.3975 24.2015 34.4483 24.079L34.5629 23.7963C34.5749 23.7661 34.5842 23.7416 34.5916 23.7218C34.5955 23.7138 34.5983 23.7052 34.5999 23.6964C34.5999 23.6964 34.5943 23.7039 34.5869 23.7199C34.5795 23.7359 34.5675 23.7623 34.5537 23.7915C34.5241 23.8594 34.4834 23.9527 34.4308 24.0743C34.3781 24.1959 34.3116 24.3439 34.2459 24.5201C34.2108 24.6078 34.1748 24.7011 34.136 24.8029C34.0972 24.9047 34.0565 25.0074 34.0177 25.1196C33.9401 25.3439 33.8504 25.5908 33.771 25.8557C33.7312 25.9895 33.685 26.1262 33.6453 26.2704C33.6055 26.4146 33.5667 26.5616 33.5261 26.7133C33.3572 27.3739 33.2261 28.0439 33.1333 28.72C33.0456 29.3965 32.9944 30.0773 32.9799 30.7596C32.9799 30.917 32.9799 31.0706 32.9753 31.2195C32.9707 31.3684 32.9809 31.5126 32.9827 31.6521C32.9827 31.9349 33.004 32.1922 33.016 32.4297C33.028 32.6672 33.0502 32.8812 33.064 33.0697C33.0779 33.2582 33.0982 33.4193 33.113 33.5513C33.1278 33.6833 33.1407 33.7822 33.15 33.8548C33.1546 33.8878 33.1574 33.9132 33.1601 33.934C33.1591 33.9415 33.1591 33.9491 33.1601 33.9566Z" fill="#263238"/>
<path d="M45.3723 26.0592C45.3719 26.0716 45.3703 26.0839 45.3677 26.096C45.3621 26.1214 45.3557 26.1563 45.3473 26.2006C45.327 26.2949 45.303 26.4287 45.2753 26.604C45.2024 27.1012 45.1715 27.6038 45.1828 28.1064C45.2008 28.8522 45.2793 29.5953 45.4176 30.3279C45.5673 31.1564 45.7872 32.0546 46.0201 32.999C46.253 33.9434 46.4516 34.8491 46.5745 35.6842C46.6974 36.5193 46.764 37.2761 46.8028 37.9133C46.8416 38.5504 46.8564 39.066 46.8675 39.4213C46.8675 39.5975 46.8758 39.7351 46.8786 39.8313C46.8786 39.8765 46.8786 39.9114 46.8786 39.9387C46.8796 39.9506 46.8796 39.9626 46.8786 39.9745C46.8776 39.9626 46.8776 39.9507 46.8786 39.9387C46.8786 39.9123 46.8786 39.8765 46.8721 39.8322C46.8675 39.738 46.8601 39.5975 46.8518 39.4222C46.8342 39.066 46.813 38.5504 46.7714 37.9142C46.7298 37.278 46.6623 36.5221 46.5339 35.6899C46.4054 34.8576 46.2095 33.9528 45.9794 33.0094C45.7493 32.0659 45.5275 31.1658 45.3806 30.3345C45.244 29.5996 45.1686 28.8542 45.1551 28.1064C45.1481 27.6013 45.1855 27.0966 45.2669 26.5984C45.2928 26.4169 45.3279 26.2369 45.3723 26.0592Z" fill="#263238"/>
<path d="M43.5962 21.1874C43.578 21.1978 43.5588 21.2064 43.5389 21.2128L43.3726 21.2788C43.1661 21.3535 42.9557 21.4165 42.7423 21.4673C42.4256 21.5412 42.1046 21.595 41.7813 21.6285C41.3854 21.668 40.9879 21.6869 40.5901 21.685C40.1669 21.685 39.7649 21.6718 39.399 21.6436C39.0725 21.6244 38.7516 21.5489 38.4499 21.4202C38.2466 21.3311 38.0635 21.2002 37.9121 21.0356C37.8716 20.9908 37.8345 20.9429 37.8012 20.8924C37.789 20.8752 37.7785 20.8569 37.7698 20.8377C37.7698 20.8377 37.8178 20.9112 37.9259 21.0262C38.0802 21.1827 38.2629 21.3069 38.4638 21.3919C38.7631 21.5146 39.0804 21.5856 39.4027 21.6021C39.7658 21.6275 40.1687 21.6379 40.5901 21.6398C41.0115 21.6417 41.4135 21.6238 41.7767 21.587C42.0986 21.5558 42.4186 21.5058 42.735 21.4371C43.0048 21.3797 43.2183 21.3109 43.367 21.2666L43.5361 21.21C43.5551 21.1998 43.5753 21.1922 43.5962 21.1874Z" fill="#263238"/>
<path d="M42.1787 32.3204C42.1606 32.3254 42.1419 32.3279 42.1232 32.3279L41.9633 32.3411L41.8488 32.3487C41.8063 32.3487 41.7564 32.3487 41.7111 32.3487C41.5993 32.349 41.4877 32.3433 41.3765 32.3317L41.1816 32.3119C41.1141 32.3044 41.0457 32.2883 40.9736 32.277C40.8286 32.2553 40.6779 32.211 40.5181 32.1696C39.8293 31.9675 39.1941 31.6096 38.6597 31.1224C38.5437 31.0166 38.4333 30.9046 38.3289 30.7869C38.2799 30.7313 38.23 30.6804 38.1875 30.6257L38.0683 30.4693C37.9994 30.3786 37.9352 30.2842 37.8761 30.1865C37.8493 30.1441 37.8234 30.1055 37.8021 30.0687C37.7809 30.0319 37.7642 29.9961 37.7467 29.965C37.7171 29.9056 37.6922 29.8585 37.6728 29.8208C37.6628 29.8047 37.655 29.7872 37.6497 29.769C37.6621 29.7832 37.6726 29.7991 37.6811 29.8161C37.7023 29.8529 37.7301 29.8981 37.7633 29.9556L37.8215 30.0565C37.8437 30.0923 37.8714 30.13 37.8992 30.1714C37.9596 30.2664 38.025 30.3579 38.0951 30.4457L38.2161 30.5993C38.2586 30.6531 38.3085 30.703 38.3575 30.7577C38.4499 30.8689 38.5701 30.9735 38.6893 31.0876C39.2216 31.5662 39.8502 31.9201 40.531 32.1243C40.6791 32.1689 40.8293 32.2057 40.981 32.2346C41.0522 32.2478 41.1206 32.2648 41.1871 32.2732L41.3793 32.2959C41.4895 32.3092 41.6002 32.3167 41.7111 32.3185C41.76 32.3185 41.8035 32.3241 41.8478 32.3241H41.9633H42.1223C42.1409 32.3209 42.1598 32.3196 42.1787 32.3204Z" fill="#263238"/>
<path d="M32.1946 33.2827C32.1863 33.2827 32.1724 33.1262 32.1262 32.8774C32.0074 32.2279 31.7626 31.6092 31.4063 31.0574C31.2696 30.8463 31.1725 30.7237 31.179 30.7181C31.2069 30.7421 31.232 30.7693 31.2539 30.7991C31.3179 30.8754 31.3781 30.955 31.4341 31.0376C31.8109 31.5841 32.0594 32.2116 32.1604 32.8717C32.1789 32.998 32.19 33.1008 32.1928 33.1714C32.1968 33.2084 32.1974 33.2456 32.1946 33.2827Z" fill="#263238"/>
<path d="M48.3923 23.3816C48.2297 23.3618 48.0662 23.3505 47.9025 23.3476L47.7833 23.3523C47.7426 23.3523 47.7001 23.3618 47.6558 23.3665C47.5624 23.3783 47.4699 23.3956 47.3785 23.4183C47.1686 23.4741 46.9657 23.5548 46.7742 23.6587C46.5851 23.767 46.409 23.8973 46.2493 24.047C46.1807 24.1138 46.1159 24.1846 46.0552 24.259C46.0275 24.2939 45.9979 24.326 45.9739 24.3608L45.9064 24.4598C45.8201 24.602 45.7408 24.7486 45.6689 24.899C45.6792 24.8546 45.6937 24.8114 45.7124 24.7699C45.7296 24.7198 45.7509 24.6712 45.7761 24.6247C45.806 24.5612 45.84 24.4998 45.8778 24.4409L45.9443 24.3382C45.9674 24.3024 45.997 24.2694 46.0247 24.2327C46.0845 24.1557 46.1494 24.083 46.2188 24.0149C46.5381 23.6994 46.9354 23.4782 47.3684 23.375C47.4621 23.3525 47.5572 23.3362 47.653 23.326C47.6983 23.326 47.7454 23.3156 47.7833 23.3146H47.9043C47.9732 23.314 48.0421 23.3181 48.1104 23.3269C48.1627 23.3306 48.2146 23.3384 48.2657 23.3505C48.3087 23.3569 48.3511 23.3673 48.3923 23.3816Z" fill="#263238"/>
<g opacity="0.3">
<path d="M40.2562 32.0244C39.2573 31.6653 38.2352 30.9217 37.751 29.9603C37.9811 31.1215 38.8442 32.3166 39.9411 32.704C40.4932 32.893 41.0834 32.9355 41.656 32.8275C42.2287 32.7195 42.7649 32.4645 43.2142 32.0866C42.2458 32.5259 41.2561 32.3826 40.2562 32.0244Z" fill="black"/>
</g>
<path d="M32.6523 39.9755C32.6511 39.9551 32.6511 39.9346 32.6523 39.9142C32.6523 39.868 32.6634 39.8096 32.6708 39.737C32.6883 39.5787 32.7133 39.36 32.7438 39.0905L33.0053 36.9566C33.0644 36.4967 33.1199 36.0603 33.1698 35.6739C33.1624 35.1611 33.1559 34.7266 33.1513 34.4128C33.1513 34.2638 33.1513 34.1441 33.1513 34.0546C33.1513 34.0169 33.1513 33.9858 33.1513 33.9604C33.1501 33.9494 33.1501 33.9383 33.1513 33.9274C33.1513 33.9274 33.1513 33.9387 33.1559 33.9604C33.1606 33.982 33.1559 34.0169 33.1615 34.0546C33.1615 34.1432 33.1698 34.2629 33.1753 34.4128C33.1846 34.7257 33.1966 35.1602 33.2114 35.6729C33.1633 36.0593 33.1097 36.4957 33.0524 36.9566L32.7752 39.0876C32.7382 39.3563 32.7077 39.5749 32.6828 39.7333C32.6717 39.8049 32.6625 39.8633 32.656 39.9086C32.6577 39.931 32.6564 39.9535 32.6523 39.9755Z" fill="#263238"/>
<path d="M26.6963 32.8406C26.6963 32.8406 26.7065 32.8519 26.7231 32.8765L26.7896 32.9839C26.8478 33.0782 26.9282 33.2158 27.0225 33.3882C27.269 33.8385 27.4902 34.3026 27.6851 34.7785C27.8793 35.2548 28.0472 35.7419 28.1878 36.2375C28.2414 36.426 28.2802 36.5824 28.3051 36.6908L28.3329 36.8152C28.3371 36.8296 28.3393 36.8445 28.3393 36.8595C28.3319 36.8464 28.3266 36.832 28.3236 36.8171C28.3132 36.7838 28.3011 36.7433 28.2876 36.6955C28.2571 36.589 28.2127 36.4363 28.1554 36.2478C28.0409 35.8708 27.868 35.3543 27.6407 34.7973C27.4134 34.2403 27.1787 33.753 26.9938 33.4043C26.9014 33.2299 26.8275 33.0904 26.7748 32.9933L26.7157 32.8821C26.7074 32.8693 26.7009 32.8553 26.6963 32.8406Z" fill="#263238"/>
<path d="M27.6223 34.4655C27.6223 34.475 27.4762 34.4552 27.2434 34.4655C27.107 34.4701 26.9711 34.4846 26.8368 34.5089C26.5074 34.5686 26.1907 34.6859 25.9007 34.8557C25.7823 34.925 25.669 35.0028 25.5615 35.0885C25.3767 35.2356 25.2843 35.3449 25.2732 35.3383C25.2914 35.309 25.3132 35.2821 25.3379 35.2582C25.3639 35.2271 25.392 35.1978 25.422 35.1705C25.4562 35.1376 25.4941 35.0989 25.5403 35.0612C25.6462 34.9705 25.7594 34.8889 25.8785 34.8171C26.1707 34.6392 26.4934 34.5196 26.8294 34.4646C26.9659 34.4417 27.1041 34.4303 27.2424 34.4307C27.3016 34.4307 27.3552 34.4307 27.4023 34.4363C27.4423 34.4378 27.4821 34.4419 27.5215 34.4486C27.5557 34.4497 27.5895 34.4554 27.6223 34.4655Z" fill="white"/>
<path d="M26.491 32.6785C26.491 32.687 26.3931 32.6342 26.2267 32.5956C26.0113 32.5446 25.7864 32.5532 25.5753 32.6202C25.3641 32.6873 25.1743 32.8106 25.0254 32.9773C24.9099 33.1046 24.8609 33.2026 24.8535 33.1979C24.8588 33.1726 24.8689 33.1486 24.8831 33.1272C24.9162 33.0656 24.9552 33.0075 24.9995 32.9538C25.1477 32.7744 25.3433 32.6423 25.5629 32.5729C25.7826 32.5036 26.0171 32.5 26.2387 32.5626C26.3052 32.5806 26.3696 32.6056 26.431 32.6371C26.4707 32.6597 26.4929 32.6757 26.491 32.6785Z" fill="white"/>
<path d="M28.1583 36.3826C28.1583 36.3826 28.137 36.4062 28.0918 36.441C28.0274 36.4902 27.9604 36.5359 27.8912 36.5777C27.6602 36.7153 27.4113 36.8191 27.152 36.8859C26.894 36.9533 26.628 36.9828 26.3619 36.9736C26.2814 36.9717 26.2011 36.9645 26.1216 36.9519C26.0921 36.9506 26.0631 36.9442 26.0356 36.933C26.0356 36.9246 26.1613 36.9396 26.3628 36.9396C26.8895 36.9376 27.4075 36.8029 27.8709 36.5475C28.0511 36.4495 28.1537 36.3751 28.1583 36.3826Z" fill="white"/>
<path d="M38.7954 21.5257C38.7954 21.5257 38.7779 21.5097 38.7529 21.4748C38.7177 21.4256 38.6867 21.3732 38.6605 21.3184C38.5725 21.1381 38.5191 20.9423 38.5034 20.7416C38.4879 20.541 38.5095 20.3392 38.5672 20.1468C38.5845 20.0889 38.6064 20.0324 38.6328 19.9781C38.6513 19.9395 38.6633 19.9187 38.667 19.9206C38.6707 19.9225 38.6365 20.0102 38.6004 20.1562C38.5047 20.5387 38.5372 20.9428 38.6929 21.3042C38.752 21.4418 38.8028 21.521 38.7954 21.5257Z" fill="white"/>
<path d="M40.3814 21.6379C40.3814 21.6379 40.3629 21.62 40.3361 21.5832C40.2992 21.5309 40.2661 21.4757 40.2373 21.4183C40.0451 21.0329 39.9968 20.5894 40.1014 20.1704C40.1166 20.1076 40.1367 20.0461 40.1615 19.9866C40.1689 19.9639 40.1798 19.9426 40.1938 19.9235C40.2021 19.9235 40.167 20.0177 40.1347 20.1779C40.0929 20.3828 40.0833 20.593 40.106 20.8009C40.129 21.009 40.1836 21.2122 40.2678 21.4032C40.3334 21.5436 40.3879 21.6285 40.3814 21.6379Z" fill="white"/>
<path d="M42.159 21.5125C42.2056 21.2482 42.2273 20.9799 42.2237 20.7114C42.2026 20.444 42.1568 20.1792 42.0869 19.9206C42.1281 19.9891 42.1592 20.0634 42.1793 20.1412C42.2327 20.3251 42.2637 20.515 42.2717 20.7067C42.2806 20.8995 42.2657 21.0926 42.2274 21.2816C42.2157 21.3616 42.1927 21.4394 42.159 21.5125Z" fill="white"/>
<path d="M29.2783 34.4957C29.2601 34.4557 29.2456 34.414 29.2348 34.3713C29.2071 34.277 29.172 34.1668 29.1304 34.0282C29.038 33.7398 28.9133 33.3411 28.7608 32.9076C28.6083 32.474 28.4494 32.0857 28.3339 31.8058C28.2793 31.6729 28.2331 31.5626 28.1971 31.4759C28.1782 31.4362 28.1627 31.3949 28.1509 31.3524C28.1753 31.3886 28.1964 31.4271 28.2137 31.4674C28.2516 31.5428 28.3061 31.6559 28.3653 31.7926C28.4891 32.0687 28.6499 32.4523 28.8061 32.8906C28.9622 33.3289 29.0833 33.7266 29.1665 34.0216C29.2071 34.1677 29.2376 34.2865 29.2589 34.3694C29.2697 34.4107 29.2762 34.453 29.2783 34.4957Z" fill="white"/>
<path d="M29.7642 35.5805C29.6638 35.4173 29.5914 35.2379 29.5498 35.0499C29.6502 35.2131 29.7226 35.3926 29.7642 35.5805Z" fill="white"/>
<path d="M32.2711 36.2667C32.2626 36.2498 32.2567 36.2317 32.2536 36.213C32.2425 36.1715 32.2286 36.1187 32.212 36.0537C32.1778 35.9161 32.1261 35.7172 32.0586 35.4721C31.9237 34.983 31.7167 34.3119 31.4395 33.5871C31.1622 32.8623 30.8656 32.2299 30.6373 31.7775C30.5237 31.5513 30.4285 31.3694 30.3601 31.245C30.3287 31.1865 30.3037 31.1385 30.2843 31.1008C30.2745 31.0842 30.2667 31.0665 30.2612 31.048C30.273 31.0628 30.2835 31.0785 30.2926 31.0951C30.3148 31.1319 30.3426 31.178 30.3758 31.2355C30.4479 31.3581 30.5477 31.5371 30.6651 31.7615C31.278 32.9345 31.7558 34.1758 32.0891 35.4608C32.1529 35.7068 32.2 35.9076 32.2286 36.0471C32.2416 36.1121 32.2527 36.1658 32.261 36.2073C32.2658 36.2268 32.2692 36.2467 32.2711 36.2667Z" fill="white"/>
<path d="M32.7897 29.8435C32.6172 29.7396 32.4533 29.6214 32.2999 29.49C32.1356 29.3721 31.9811 29.2407 31.8379 29.097C32.0101 29.2017 32.1738 29.3202 32.3277 29.4514C32.4918 29.5691 32.6463 29.7003 32.7897 29.8435Z" fill="white"/>
<path d="M33.0986 27.6248C33.0249 27.6164 32.9537 27.5923 32.8897 27.5541C32.7798 27.5022 32.6948 27.4504 32.7049 27.4381C32.7787 27.446 32.85 27.4701 32.9138 27.5088C33.0191 27.5607 33.1041 27.6125 33.0986 27.6248Z" fill="white"/>
<path d="M33.8304 25.6361C33.6777 25.616 33.5272 25.5806 33.3813 25.5305C33.2313 25.495 33.0854 25.4435 32.946 25.3769C33.0988 25.397 33.2492 25.4323 33.3952 25.4824C33.5451 25.5179 33.691 25.5694 33.8304 25.6361Z" fill="white"/>
<path d="M36.8299 23.3288C36.8299 23.342 36.11 23.3288 35.2229 23.2967C34.3358 23.2647 33.6177 23.2298 33.6187 23.2166C33.6196 23.2034 34.3385 23.2166 35.2247 23.2477C36.1109 23.2788 36.8299 23.3156 36.8299 23.3288Z" fill="white"/>
<path d="M38.3594 23.3505C38.1742 23.3739 37.9865 23.3634 37.8049 23.3193C37.8962 23.3007 37.9899 23.2978 38.0822 23.3109C38.1761 23.3078 38.2699 23.3212 38.3594 23.3505Z" fill="white"/>
<path d="M43.9871 23.3344C43.9871 23.3476 43.0898 23.3448 41.9837 23.3278C40.8775 23.3108 39.9802 23.2854 39.9802 23.2722C39.9802 23.259 40.8775 23.2618 41.9846 23.2788C43.0917 23.2958 43.988 23.3165 43.9871 23.3344Z" fill="white"/>
<path d="M46.2209 23.0385C46.008 23.0712 45.7915 23.0712 45.5786 23.0385C45.7915 23.0058 46.008 23.0058 46.2209 23.0385Z" fill="white"/>
<path d="M48.056 22.7897C47.9424 22.8236 47.825 22.8422 47.7067 22.8453C47.5895 22.8634 47.4705 22.8657 47.3528 22.8519C47.4662 22.8173 47.5837 22.7986 47.7021 22.7963C47.8192 22.7775 47.9383 22.7753 48.056 22.7897Z" fill="white"/>
<path d="M44.2809 21.4673C44.2563 21.4775 44.231 21.486 44.2052 21.4928L43.9862 21.5597C43.8937 21.5889 43.7736 21.6219 43.6359 21.6539C43.4982 21.686 43.343 21.7303 43.1683 21.7633L42.8911 21.8198C42.7987 21.8387 42.6961 21.8528 42.5926 21.8707C42.3865 21.9075 42.1648 21.9329 41.931 21.965C41.4235 22.0188 40.9136 22.045 40.4034 22.0432C39.8952 22.0347 39.3878 21.9988 38.8833 21.9357C38.6504 21.9018 38.4277 21.8726 38.2226 21.8321C38.12 21.8123 38.0202 21.7962 37.925 21.7755L37.6524 21.7152C37.4777 21.6784 37.3234 21.6332 37.1903 21.5974C37.0573 21.5616 36.9362 21.5276 36.842 21.4965L36.6239 21.4268C36.574 21.4098 36.5481 21.4004 36.5481 21.3994C36.5748 21.4025 36.6012 21.4085 36.6266 21.4174L36.8466 21.4786C36.939 21.5059 37.0591 21.5389 37.1968 21.5729C37.3345 21.6068 37.4888 21.6492 37.6635 21.6831L37.9361 21.7406C38.0285 21.7604 38.1311 21.7755 38.2336 21.7934C38.4388 21.833 38.6597 21.8603 38.8916 21.8924C39.3969 21.9521 39.9049 21.9854 40.4136 21.9923C40.9209 21.9951 41.428 21.9711 41.9328 21.9207C42.1657 21.8933 42.3875 21.8698 42.5935 21.8339C42.6961 21.817 42.7959 21.8038 42.8911 21.7859L43.1683 21.7331C43.3439 21.702 43.4992 21.6624 43.6368 21.6313C43.7745 21.6002 43.8928 21.571 43.988 21.5446L44.2098 21.4871C44.2329 21.4784 44.2567 21.4718 44.2809 21.4673Z" fill="white"/>
<path d="M45.1801 27.048C45.1703 27.0492 45.1604 27.0492 45.1505 27.048H45.0581H44.7236C44.4334 27.048 44.013 27.048 43.4936 27.0385C42.454 27.0234 41.0189 26.9867 39.435 26.9094C37.8511 26.8321 36.4132 26.7614 35.3893 26.5569C34.9849 26.4824 34.5862 26.3785 34.1963 26.2459C34.0586 26.1987 33.9533 26.1573 33.8821 26.1271L33.8017 26.0941C33.7922 26.0911 33.7832 26.0866 33.7749 26.0809C33.7848 26.0825 33.7944 26.0853 33.8035 26.0894L33.8858 26.1186C33.9579 26.145 34.0641 26.1837 34.2018 26.228C34.593 26.3532 34.9918 26.4518 35.3958 26.523C36.4169 26.7181 37.8539 26.7793 39.4368 26.8604C41.0198 26.9414 42.455 26.9801 43.4936 27.0037L44.7245 27.0291L45.0591 27.0366H45.1459L45.1801 27.048Z" fill="white"/>
<path d="M36.342 30.2318C36.3008 30.2421 36.2587 30.2481 36.2163 30.2497C36.1359 30.2582 36.0185 30.2666 35.8725 30.2723C35.114 30.3012 34.3551 30.2267 33.6159 30.0508C33.4745 30.0169 33.3608 29.9858 33.2823 29.9613C33.2412 29.9519 33.2012 29.938 33.1631 29.9198C33.2053 29.9239 33.247 29.9318 33.2878 29.9434C33.3664 29.9613 33.481 29.9877 33.6233 30.0169C34.3625 30.1744 35.1165 30.2483 35.8716 30.2374C36.0167 30.2374 36.1341 30.2374 36.2154 30.2308C36.2575 30.2265 36.2999 30.2268 36.342 30.2318Z" fill="white"/>
<path d="M37.5948 30.2148C37.435 30.2571 37.2687 30.2676 37.105 30.2459C37.1825 30.216 37.2652 30.2023 37.348 30.2054C37.4301 30.192 37.5139 30.1952 37.5948 30.2148Z" fill="white"/>
<path d="M43.1617 30.686C43.1445 30.6881 43.1271 30.6881 43.1099 30.686L42.963 30.6908C42.8346 30.6908 42.6497 30.6908 42.4206 30.6908C41.9631 30.6908 41.331 30.6766 40.6343 30.6417C39.9375 30.6069 39.3054 30.556 38.8508 30.5117C38.6225 30.4891 38.4386 30.4693 38.3111 30.4542L38.1651 30.4344C38.1479 30.4328 38.1309 30.4296 38.1143 30.425C38.1314 30.4226 38.1488 30.4226 38.166 30.425L38.3129 30.4344L38.8535 30.4768C39.3091 30.5126 39.9394 30.5569 40.6361 30.5927C41.3329 30.6286 41.9641 30.6455 42.4215 30.6559L42.963 30.6672L43.1099 30.6728C43.1277 30.6745 43.1452 30.679 43.1617 30.686Z" fill="white"/>
<path d="M45.3271 30.4975C45.0481 30.567 44.7623 30.6046 44.4751 30.6097C44.6128 30.5669 44.7548 30.5397 44.8983 30.5287C45.0397 30.5019 45.1835 30.4915 45.3271 30.4975Z" fill="white"/>
<path d="M46.213 34.0697C46.2021 34.0728 46.191 34.0747 46.1797 34.0753L46.0818 34.0867L45.7066 34.1253C45.5439 34.1413 45.3443 34.1602 45.1124 34.1781C44.8804 34.196 44.6161 34.2205 44.3241 34.2375C43.7392 34.277 43.0424 34.311 42.268 34.3317C41.4936 34.3524 40.6425 34.3562 39.7489 34.3383C38.8553 34.3204 38.0033 34.2752 37.2307 34.2233C36.4582 34.1715 35.7633 34.1036 35.1811 34.0348C34.8891 34.0047 34.6266 33.9698 34.3956 33.9406C34.1646 33.9113 33.9659 33.8859 33.8042 33.8623L33.4345 33.8077L33.3384 33.7964C33.3271 33.7952 33.3159 33.7927 33.3052 33.7888H33.3384L33.4364 33.8001L33.8107 33.8454C33.9733 33.8661 34.172 33.8906 34.403 33.9151C34.634 33.9396 34.8974 33.9736 35.1894 34.0009C35.7716 34.0621 36.4656 34.1225 37.2381 34.1752C38.0107 34.228 38.8608 34.2695 39.7545 34.2865C40.6481 34.3034 41.4982 34.2997 42.2717 34.2865C43.0452 34.2733 43.7419 34.2365 44.326 34.2007C44.6189 34.1856 44.8804 34.1649 45.1151 34.1489C45.3499 34.1328 45.5467 34.1178 45.7093 34.1036L46.0854 34.0744L46.1834 34.0687C46.1933 34.068 46.2032 34.0683 46.213 34.0697Z" fill="white"/>
<path d="M39.9183 38.2884C39.8952 38.2934 39.8716 38.2956 39.8481 38.295L39.6448 38.3044C39.4692 38.3129 39.2141 38.3176 38.8999 38.3195C38.2697 38.3195 37.3992 38.3007 36.4409 38.2196C35.4826 38.1385 34.6204 38.0141 33.9994 37.9048C33.6899 37.8511 33.4394 37.803 33.2666 37.7653L33.0689 37.7219C33.0457 37.7177 33.0228 37.7117 33.0005 37.704C33.0241 37.7043 33.0477 37.7072 33.0707 37.7125L33.2703 37.7465C33.4431 37.7785 33.6945 37.8209 34.005 37.8709C34.6269 37.9717 35.4882 38.0895 36.4455 38.1715C37.4029 38.2535 38.2706 38.2799 38.8999 38.2846C39.2141 38.2846 39.4692 38.2846 39.6448 38.2846H39.8471C39.8709 38.284 39.8947 38.2853 39.9183 38.2884Z" fill="white"/>
<path d="M42.2749 38.1951C41.817 38.2356 41.3569 38.2441 40.8979 38.2205C41.3557 38.1788 41.8159 38.1703 42.2749 38.1951Z" fill="white"/>
<path d="M46.7104 37.967C46.6715 37.9747 46.6318 37.9782 46.5921 37.9773L46.2705 37.9896L45.2115 38.0245L44.1516 38.0688L43.8309 38.0801C43.7917 38.0852 43.7519 38.0852 43.7126 38.0801C43.7509 38.0711 43.7899 38.0654 43.8291 38.0631C43.9049 38.0556 44.0139 38.0462 44.1497 38.0358C44.4205 38.0151 44.7966 37.9934 45.2097 37.9773C45.6228 37.9613 45.9989 37.9566 46.2705 37.9566C46.4064 37.9566 46.5164 37.9566 46.5921 37.9566C46.6318 37.9553 46.6715 37.9588 46.7104 37.967Z" fill="white"/>
<path d="M47.9337 28.1478C47.8973 28.1555 47.86 28.1586 47.8228 28.1573L47.5225 28.1695C47.2684 28.1818 46.9182 28.2063 46.5347 28.2572C46.1512 28.3081 45.8055 28.375 45.557 28.4287L45.2631 28.4947C45.2277 28.5059 45.1911 28.5125 45.1541 28.5145C45.1873 28.4978 45.2224 28.4852 45.2585 28.4768C45.3269 28.4551 45.4257 28.4268 45.5496 28.3948C46.1952 28.2326 46.8568 28.1456 47.5216 28.1356C47.6482 28.1356 47.7517 28.1356 47.8228 28.1356C47.8601 28.1358 47.8973 28.1399 47.9337 28.1478Z" fill="white"/>
<path d="M49.4319 27.8434C49.4319 27.8576 49.2249 27.866 48.9699 27.9009C48.7148 27.9358 48.5152 27.982 48.5078 27.9678C48.6513 27.9045 48.8039 27.8653 48.9597 27.8519C49.1155 27.8222 49.2751 27.8193 49.4319 27.8434Z" fill="white"/>
<path d="M49.9494 27.7096C49.9494 27.7218 49.9161 27.7463 49.8653 27.7642C49.8145 27.7821 49.7729 27.785 49.7655 27.7727C49.7581 27.7605 49.7997 27.735 49.8496 27.7171C49.8995 27.6992 49.9448 27.6964 49.9494 27.7096Z" fill="white"/>
<path d="M49.4329 24.8641C49.3834 24.8725 49.3333 24.876 49.2832 24.8745C49.1908 24.8745 49.0494 24.883 48.8784 24.8915C48.5356 24.9084 48.0634 24.9461 47.5468 25.0234C47.0303 25.1007 46.5673 25.2044 46.2346 25.2892C46.0683 25.3316 45.9343 25.3674 45.8419 25.3929C45.7947 25.409 45.7461 25.4204 45.6968 25.4268C45.7419 25.4058 45.7885 25.3884 45.8363 25.375C45.9287 25.3429 46.0609 25.3024 46.2263 25.2553C47.091 25.0154 47.9808 24.8815 48.8766 24.8566C49.0485 24.8566 49.1871 24.8566 49.2832 24.8566C49.3332 24.8556 49.3832 24.8581 49.4329 24.8641Z" fill="white"/>
<path d="M50.4126 31.2516C50.3977 31.2568 50.3821 31.26 50.3664 31.261L50.2351 31.277L49.7509 31.3317C49.3415 31.3788 48.7778 31.4476 48.1568 31.5409C47.5359 31.6342 46.9758 31.7294 46.5711 31.8086L46.0915 31.8981L45.9612 31.9207C45.9458 31.9246 45.9299 31.9262 45.9141 31.9255C45.9282 31.9187 45.9431 31.914 45.9584 31.9113L46.0878 31.8793C46.1996 31.8519 46.365 31.8161 46.5646 31.7747C46.9675 31.6898 47.5275 31.5861 48.1495 31.4919C48.7714 31.3976 49.3369 31.3354 49.7472 31.2977C49.9524 31.2789 50.1169 31.2648 50.2333 31.2582L50.3654 31.2506C50.3811 31.2493 50.3969 31.2497 50.4126 31.2516Z" fill="white"/>
<path d="M48.299 34.9434C48.0072 35.0055 47.7123 35.0518 47.4156 35.0819C47.1212 35.1298 46.8244 35.1613 46.5266 35.1762C47.113 35.0679 47.7047 34.9914 48.299 34.9472V34.9434Z" fill="white"/>
<path d="M49.6463 34.7709C49.3976 34.8447 49.1409 34.8868 48.8821 34.8963C49.1308 34.8227 49.3875 34.7806 49.6463 34.7709Z" fill="white"/>
<path d="M50.9308 34.769C50.7282 34.8017 50.5218 34.8017 50.3191 34.769C50.5218 34.7364 50.7282 34.7364 50.9308 34.769Z" fill="white"/>
<path d="M51.6636 38.328C51.6484 38.3332 51.6325 38.3358 51.6164 38.3355L51.4778 38.3459L50.9696 38.3789L49.2942 38.4854L47.6197 38.6032L47.1115 38.6399L46.9738 38.6475C46.9575 38.6493 46.9411 38.6493 46.9248 38.6475C46.9404 38.6423 46.9565 38.6391 46.9729 38.638L47.1105 38.6211C47.2298 38.6069 47.4026 38.589 47.617 38.5683C48.0448 38.5278 48.6335 38.4741 49.2914 38.4335C49.9494 38.393 50.539 38.3581 50.9687 38.3393C51.183 38.3308 51.3568 38.3251 51.4769 38.3223H51.6155C51.6317 38.3217 51.6479 38.3236 51.6636 38.328Z" fill="white"/>
<g opacity="0.3">
<path d="M45.1803 27.1987C44.9492 27.8481 44.8106 28.8067 44.9437 30.5588C45.0018 31.2573 44.9025 31.9601 44.6535 32.6135C44.5528 32.8708 44.4401 33.2214 44.6655 33.3769C44.8503 33.5023 45.1017 33.3703 45.3124 33.4363C45.5896 33.5221 45.6534 33.8765 45.682 34.1668C45.8741 36.0223 46.27 37.85 46.8621 39.6154C47.2059 35.5164 45.0001 31.2996 45.1803 27.1987Z" fill="black"/>
</g>
<g opacity="0.3">
<path d="M33.02 37.0301L33.1937 35.7106C33.166 35.295 33.1725 33.9924 33.1013 33.3628C32.9777 32.1256 32.9536 30.8801 33.0292 29.6389C32.6762 30.6399 32.5025 31.7238 32.618 32.7813C32.6679 33.2365 32.7612 33.687 32.7779 34.1441C32.7945 34.6013 32.7252 35.0782 32.4785 35.4637C32.1236 36.0132 31.462 36.2761 30.8234 36.3675C29.6387 36.5381 28.2858 36.1366 27.687 35.0801C27.7932 35.6785 28.0184 36.2485 28.3487 36.7549C28.3487 36.7549 31.5618 37.5221 33.02 37.0301Z" fill="black"/>
</g>
<g opacity="0.3">
<path d="M40.5383 21.6586C38.6088 21.5729 38.3593 21.4098 37.8723 20.9847C37.8723 21.3259 38.1625 21.5898 38.461 21.7435C40.0393 22.5587 42.0705 22.3618 43.4696 21.2581C42.5048 21.472 41.5253 21.7029 40.5383 21.6586Z" fill="black"/>
</g>
<path d="M19.6379 33.2242C20.4128 32.9977 21.2188 32.9022 22.024 32.9415C22.98 32.9737 23.9371 32.9396 24.8887 32.8397C25.7324 33.6653 26.0096 34.7002 26.0198 35.8331L20.4465 35.2177L19.6379 33.2242Z" fill="#FFBE9D"/>
<path d="M19.2626 35.9359C19.1028 35.8737 18.9373 36.0075 18.8228 36.1366C18.7082 36.2657 18.5908 36.4147 18.4272 36.4731L18.0576 36.0584L17.6575 37.0886C17.8121 37.2432 17.988 37.374 18.1796 37.4769C18.3098 37.5633 18.4679 37.5947 18.6204 37.5645C18.7839 37.5136 18.8847 37.3496 18.9697 37.1979L19.2904 36.6324C19.3633 36.5217 19.4121 36.3964 19.4336 36.2648C19.4429 36.1986 19.4314 36.131 19.4007 36.0719C19.37 36.0128 19.3216 35.9651 19.2626 35.9359Z" fill="#FFBE9D"/>
<path d="M19.6796 33.2054C19.6796 33.2054 18.3757 34.081 18.141 34.212C17.9063 34.343 16.8574 36.6126 16.8574 36.6126L17.0506 39.3732C17.2052 39.3548 17.3502 39.287 17.4649 39.1795C17.5796 39.072 17.658 38.9304 17.6891 38.7747C17.8296 38.2092 17.8878 36.9481 17.8878 36.9481L18.8442 35.7078L20.8163 35.1055L19.6796 33.2054Z" fill="#FFBE9D"/>
<path d="M18.7546 35.0094C18.7546 35.4175 19.2342 35.6362 19.091 36.0914C19.1231 36.6275 19.1101 37.1655 19.0522 37.6993C19.0439 37.7757 19.1788 37.9434 19.237 37.9877C19.3239 38.0499 19.4449 37.9962 19.5263 37.9274C19.7499 37.7389 19.8654 37.4467 19.9264 37.1574C19.9874 36.868 20.004 36.5693 20.0743 36.2818C20.1667 35.917 20.3367 35.5806 20.4439 35.2215C20.5511 34.8624 20.5917 34.4561 20.4171 34.1253" fill="#FFBE9D"/>
<path d="M18.6934 35.0461C18.7234 35.0584 18.7507 35.0767 18.7738 35.0999C18.8405 35.1585 18.8957 35.2295 18.9364 35.3091C19.0473 35.508 19.112 35.8199 19.1305 36.1574C19.1459 36.4481 19.1459 36.7394 19.1305 37.0301C19.1258 37.1423 19.1194 37.2318 19.1147 37.295C19.1139 37.3268 19.1095 37.3584 19.1018 37.3892C19.0955 37.3583 19.0933 37.3266 19.0953 37.295C19.0953 37.2215 19.0953 37.1338 19.0953 37.0301C19.0953 36.8077 19.1009 36.4995 19.0806 36.1611C19.0763 35.8728 19.0167 35.5881 18.905 35.3232C18.8521 35.2182 18.7803 35.1242 18.6934 35.0461Z" fill="#EB996E"/>
<path d="M20.5165 34.0443C20.5433 34.0983 20.5608 34.1566 20.5682 34.2167C20.5958 34.3598 20.6063 34.5056 20.5997 34.6512C20.5937 34.7972 20.5701 34.9419 20.5294 35.082C20.5168 35.1411 20.4943 35.1975 20.4629 35.2488C20.5055 35.0511 20.5364 34.8509 20.5553 34.6493C20.555 34.447 20.542 34.2449 20.5165 34.0443Z" fill="#EB996E"/>
<path d="M18.8301 35.705C18.8107 35.7388 18.7878 35.7704 18.7617 35.7992L18.5603 36.0499L18.2581 36.4166L18.0733 36.6324C18.0069 36.7046 17.9526 36.7874 17.9125 36.8774C17.8895 36.9737 17.8744 37.0718 17.8672 37.1706C17.8579 37.2648 17.8506 37.3591 17.8441 37.4533C17.8302 37.6315 17.8182 37.7926 17.808 37.9321C17.7979 38.0716 17.784 38.1791 17.772 38.2545C17.7686 38.2945 17.7586 38.3337 17.7424 38.3704C17.7441 38.3306 17.7478 38.291 17.7535 38.2516C17.76 38.1762 17.7665 38.0631 17.7739 37.9302C17.7812 37.7973 17.7896 37.6286 17.7997 37.4505C17.8053 37.3562 17.8108 37.262 17.8201 37.1677C17.8262 37.0643 17.8423 36.9617 17.8681 36.8614C17.91 36.7661 17.9672 36.6785 18.0372 36.6022L18.222 36.3883L18.5325 36.0282L18.7451 35.7879C18.7705 35.7573 18.799 35.7294 18.8301 35.705Z" fill="#EB996E"/>
<path d="M13.8169 6.53593C12.9852 6.48127 12.1434 6.6038 11.308 6.55101C10.456 6.49823 9.62336 6.26826 8.77226 6.19003C7.92117 6.1118 7.00446 6.22396 6.33819 6.76874C7.07438 6.94354 7.76557 7.27642 8.36566 7.74518C7.41938 7.9384 6.43984 7.83943 5.47878 7.93369C4.51772 8.02794 3.50029 8.36253 2.95322 9.17404C3.42583 9.07306 3.91748 9.12344 4.36095 9.3183C4.80441 9.51316 5.17803 9.84297 5.43073 10.2626C4.59313 11.0675 3.49459 11.5301 2.34424 11.5624C2.57157 12.569 3.63798 13.0949 4.59072 13.4474C5.54347 13.7999 6.62374 14.209 7.00077 15.1684L5.85673 15.3711C6.64222 15.9903 7.25305 16.8047 7.88975 17.5851C8.52645 18.3655 9.20566 19.1346 10.078 19.6181C10.9504 20.1016 12.0547 20.258 12.9335 19.7849L19.2783 11.0638C18.6084 8.60099 16.3129 6.69805 13.8169 6.53593Z" fill="#FF9F1C"/>
<path d="M20.2882 15.5374C21.0704 12.0626 18.9426 8.59904 15.5358 7.8013C12.1289 7.00356 8.73303 9.17371 7.95088 12.6485C7.16873 16.1232 9.29647 19.5868 12.7033 20.3845C16.1102 21.1823 19.5061 19.0121 20.2882 15.5374Z" fill="#F5F5F5"/>
<path d="M19.9261 13.9385C19.9185 12.4139 19.3283 10.9526 18.2808 9.865C17.2333 8.77744 15.8112 8.14949 14.3168 8.11466C14.2725 8.11466 14.229 8.11466 14.1838 8.11466C13.4042 8.11412 12.6328 8.27584 11.9166 8.58992C11.2005 8.90399 10.5547 9.36382 10.0188 9.94125C9.00952 11.0227 8.44499 12.4576 8.44141 13.9507C8.44141 13.9573 8.44141 13.9649 8.44141 13.9715C8.44004 15.5058 9.03095 16.979 10.0863 18.0723L11.649 16.3485C11.054 15.706 10.7232 14.8552 10.7249 13.9715C10.7249 13.9639 10.7249 13.9564 10.7249 13.9488C10.7287 13.0985 11.0404 12.2795 11.6 11.6491C11.9173 11.2887 12.3054 11.0003 12.7391 10.8027C13.1727 10.6051 13.6423 10.5027 14.1172 10.5021C14.1782 10.5021 14.2392 10.5021 14.302 10.5077C15.1652 10.5554 15.9781 10.9367 16.5753 11.574C17.1726 12.2114 17.5093 13.0569 17.517 13.9385C17.517 13.9479 17.517 13.9583 17.517 13.9686C17.5173 14.424 17.4294 14.8749 17.2583 15.2954C17.0872 15.716 16.8362 16.0979 16.5199 16.4192L18.2304 18.1223C18.7683 17.5784 19.1952 16.931 19.4863 16.2177C19.7773 15.5044 19.9268 14.7393 19.9261 13.9667C19.927 13.9583 19.9261 13.9479 19.9261 13.9385Z" fill="#FF9F1C"/>
<path d="M11.6002 11.6472C11.1631 11.176 10.3776 10.3192 10.019 9.9422L11.5974 11.6472H11.6002Z" fill="#FF9F1C"/>
<g opacity="0.6">
<path d="M17.5181 13.9686C17.5185 14.424 17.4305 14.8749 17.2594 15.2954C17.0883 15.716 16.8373 16.0979 16.521 16.4192L18.2315 18.1223C18.7695 17.5784 19.1963 16.931 19.4874 16.2177C19.7785 15.5044 19.9279 14.7394 19.9272 13.9667C19.9272 13.9564 19.9272 13.946 19.9272 13.9366H17.5172C17.5172 13.9479 17.5181 13.9583 17.5181 13.9686Z" fill="black"/>
</g>
<g opacity="0.5">
<path d="M17.5171 13.9385H19.9262C19.9207 12.4208 19.3357 10.965 18.2952 9.88L16.5884 11.5878C17.1792 12.2228 17.5112 13.0631 17.5171 13.9385Z" fill="black"/>
</g>
<g opacity="0.4">
<path d="M14.3022 10.5077C15.1722 10.5542 15.9911 10.9411 16.5885 11.5878L18.2953 9.87999C17.2479 8.78157 15.8189 8.14746 14.317 8.11465L14.3022 10.5068V10.5077Z" fill="black"/>
</g>
<g opacity="0.3">
<path d="M14.1174 10.5021C14.1784 10.5021 14.2394 10.5021 14.3022 10.5077L14.317 8.1156C14.2727 8.1156 14.2292 8.1156 14.184 8.1156C13.4044 8.11507 12.633 8.27678 11.9168 8.59086C11.2007 8.90494 10.5549 9.36477 10.019 9.9422C10.3776 10.3192 11.1631 11.1675 11.6002 11.6472C11.9177 11.2872 12.3059 10.9992 12.7395 10.8019C13.1732 10.6046 13.6426 10.5025 14.1174 10.5021Z" fill="black"/>
</g>
<g opacity="0.2">
<path d="M10.7221 13.946C10.726 13.0957 11.0376 12.2767 11.5972 11.6463L10.0188 9.93845C9.00952 11.0199 8.44499 12.4548 8.44141 13.9479C8.88035 13.9564 9.93567 13.9507 10.7221 13.946Z" fill="black"/>
</g>
<path d="M20.4495 14.0977C20.4495 14.0977 20.4495 14.0619 20.4495 13.9931V13.864C20.4495 13.8131 20.4495 13.7537 20.4412 13.6859C20.4329 13.618 20.4301 13.5436 20.4237 13.4606C20.4172 13.3777 20.4024 13.2872 20.3904 13.1892C20.3636 12.9941 20.3211 12.7697 20.262 12.5209C20.1931 12.2452 20.1063 11.9744 20.0023 11.7104C19.8799 11.3959 19.7328 11.092 19.5624 10.8018C19.1456 10.0923 18.6002 9.47015 17.9554 8.96858C17.1728 8.36091 16.2617 7.94841 15.2949 7.76404C14.7581 7.66109 14.2105 7.62941 13.6657 7.66979C13.3809 7.69027 13.0978 7.73058 12.8184 7.79043C12.5319 7.85367 12.2497 7.93584 11.9737 8.03643C11.6919 8.1431 11.4174 8.26906 11.1522 8.41343C10.8814 8.56249 10.621 8.73066 10.3732 8.91674C10.1221 9.10873 9.8841 9.31782 9.66071 9.54257C9.43603 9.77497 9.2276 10.0231 9.03694 10.2853C8.84321 10.5536 8.67078 10.8372 8.5213 11.1335C8.48526 11.208 8.44367 11.2815 8.41133 11.3588C8.37898 11.4361 8.34294 11.5115 8.30968 11.5888C8.24869 11.7462 8.18492 11.9026 8.13502 12.06C8.0282 12.3851 7.94784 12.7186 7.89476 13.0572C7.78441 13.7438 7.78441 14.4442 7.89476 15.1307C7.94815 15.4693 8.02882 15.8029 8.13595 16.1279L8.17568 16.2486L8.19601 16.3089L8.21819 16.3683L8.3106 16.6048L8.41318 16.8348C8.44552 16.9121 8.48618 16.9856 8.52314 17.0601C8.67265 17.3562 8.84476 17.6398 9.03787 17.9083C9.22828 18.1707 9.43673 18.4189 9.66163 18.651C9.88554 18.8759 10.1239 19.0853 10.375 19.2778C10.6227 19.4634 10.8827 19.6312 11.1531 19.7802C11.6759 20.0667 12.236 20.2758 12.8165 20.4013C13.096 20.4607 13.3791 20.501 13.6639 20.5219C14.2087 20.5628 14.7563 20.5311 15.2931 20.4277C15.7949 20.3328 16.2832 20.1745 16.7467 19.9564C17.1753 19.7581 17.5805 19.5108 17.9545 19.2194C18.5988 18.7179 19.1438 18.0961 19.5606 17.3871C19.7312 17.0967 19.8783 16.7925 20.0004 16.4776C20.1043 16.2138 20.1911 15.9434 20.2601 15.668C20.3217 15.4166 20.3645 15.1936 20.3886 14.9988C20.4006 14.9045 20.4135 14.8103 20.4218 14.7283C20.4301 14.6463 20.4338 14.57 20.4394 14.503C20.4449 14.4361 20.4468 14.3758 20.4477 14.3249V14.1958C20.4477 14.2306 20.4477 14.2731 20.4477 14.3249C20.4477 14.3767 20.4477 14.4352 20.4403 14.503C20.4329 14.5709 20.4301 14.6454 20.4237 14.7292C20.4172 14.8131 20.4033 14.9017 20.3923 15.0007C20.3655 15.1958 20.3248 15.4201 20.2657 15.6699C20.1977 15.9463 20.1116 16.2177 20.0078 16.4823C19.8867 16.7988 19.7402 17.1046 19.5698 17.3966C19.1533 18.1081 18.6079 18.7325 17.9628 19.2364C17.1784 19.8477 16.2643 20.2629 15.294 20.4484C14.7554 20.5519 14.2059 20.5836 13.6593 20.5427C13.3736 20.5217 13.0896 20.4814 12.8091 20.422C12.2251 20.2969 11.6616 20.0875 11.1356 19.8C10.8642 19.6504 10.6033 19.4819 10.3547 19.2957C9.84153 18.9096 9.3888 18.4463 9.01199 17.9215C8.81829 17.6528 8.64528 17.3692 8.4945 17.0733C8.45753 16.9979 8.41687 16.9244 8.3836 16.8471L8.28103 16.6152L8.18862 16.3786L8.16552 16.3193L8.14519 16.2589L8.10545 16.1374C7.99685 15.8106 7.91524 15.4752 7.86149 15.1345C7.808 14.7916 7.7802 14.445 7.77832 14.0977C7.78042 13.749 7.80822 13.4008 7.86149 13.0563C7.91532 12.7168 7.99598 12.3824 8.10268 12.0563C8.1535 11.8932 8.21727 11.7358 8.27826 11.5784L8.38083 11.3465C8.41318 11.2693 8.45476 11.1957 8.4908 11.1203C8.64133 10.8242 8.81436 10.5406 9.0083 10.2721C9.19964 10.0088 9.40901 9.75967 9.63483 9.52654C9.85923 9.30058 10.0985 9.09054 10.351 8.89789C10.8425 8.52732 11.3837 8.23085 11.958 8.01758C12.2351 7.91741 12.5181 7.83525 12.8054 7.77158C13.6241 7.59801 14.4681 7.58873 15.2903 7.74425C16.26 7.9303 17.1736 8.34505 17.9582 8.95538C18.6048 9.45751 19.1517 10.0806 19.5698 10.7914C19.8821 11.3292 20.1168 11.9101 20.2666 12.5162C20.3257 12.765 20.3664 12.9875 20.3932 13.1854C20.4043 13.2796 20.4172 13.3739 20.4246 13.4568C20.432 13.5398 20.4366 13.6152 20.4412 13.683C20.4459 13.7509 20.4486 13.8103 20.4486 13.8612C20.4486 13.9121 20.4486 13.9554 20.4486 13.9903C20.4496 14.0591 20.4495 14.0977 20.4495 14.0977Z" fill="#263238"/>
<path d="M14.6932 15.3353C15.365 15.0486 15.6817 14.2606 15.4005 13.5754C15.1193 12.8902 14.3468 12.5672 13.6749 12.854C13.0031 13.1407 12.6864 13.9287 12.9676 14.6139C13.2488 15.2991 14.0213 15.6221 14.6932 15.3353Z" fill="#E0E0E0"/>
<path d="M13.7958 14.1845C13.809 14.2328 13.8315 14.2779 13.862 14.3172C13.8924 14.3565 13.9303 14.3893 13.9733 14.4135C14.0163 14.4377 14.0637 14.4529 14.1125 14.4583C14.1614 14.4636 14.2108 14.459 14.2579 14.4446L18.8442 13.1176L14.111 13.6981C14.0569 13.7047 14.0049 13.7231 13.9586 13.7523C13.9123 13.7814 13.8728 13.8205 13.8428 13.8668C13.8128 13.913 13.793 13.9655 13.7849 14.0203C13.7768 14.0752 13.7806 14.1312 13.7958 14.1845Z" fill="#455A64"/>
<path d="M16.5702 12.684C16.5663 12.6785 16.5632 12.6725 16.561 12.6661L16.5351 12.6114C16.5231 12.5878 16.5111 12.5577 16.4935 12.5238L16.4279 12.4012C16.4039 12.3569 16.3734 12.307 16.342 12.2589C16.3105 12.2108 16.2708 12.1543 16.2292 12.0968C16.1325 11.9689 16.0259 11.8491 15.9104 11.7386C15.6087 11.4535 15.249 11.2398 14.8569 11.1128C14.6249 11.0388 14.3838 10.9988 14.1408 10.994C13.6161 10.9833 13.0991 11.1238 12.6493 11.3993C12.4404 11.5265 12.2506 11.6836 12.0856 11.8659C11.8061 12.1757 11.5974 12.5449 11.4747 12.9469C11.429 13.1011 11.395 13.2587 11.3731 13.4182C11.3648 13.4889 11.3583 13.5549 11.3537 13.6152C11.3491 13.6755 11.3481 13.7321 11.3491 13.782C11.35 13.832 11.3491 13.8763 11.3491 13.9158C11.3491 13.9554 11.3537 13.9865 11.3555 14.0101C11.3574 14.0337 11.3555 14.0553 11.3601 14.0704C11.3613 14.0773 11.3613 14.0843 11.3601 14.0912V14.0704C11.3601 14.0563 11.3601 14.0365 11.3537 14.011C11.3472 13.9856 11.3463 13.9517 11.3444 13.9168C11.3426 13.8819 11.3444 13.8339 11.3389 13.783C11.3333 13.7321 11.3389 13.6774 11.3389 13.6161C11.3389 13.5549 11.3491 13.4879 11.3564 13.4173C11.3765 13.2561 11.4096 13.0969 11.4553 12.9413C11.5766 12.5356 11.7853 12.1627 12.0662 11.8499C12.2323 11.6656 12.4237 11.5069 12.6345 11.3786C13.088 11.1001 13.6097 10.9585 14.1389 10.9705C14.3839 10.9753 14.6269 11.016 14.8606 11.0911C15.257 11.22 15.6201 11.4377 15.9233 11.7283C16.0391 11.8401 16.146 11.9612 16.2431 12.0902C16.2847 12.1477 16.3216 12.2024 16.3549 12.2542C16.3882 12.306 16.4159 12.3532 16.439 12.3975L16.5 12.5162C16.5166 12.5511 16.5286 12.5812 16.5397 12.6058L16.5628 12.6614C16.5659 12.6687 16.5683 12.6762 16.5702 12.684Z" fill="#263238"/>
<path d="M16.0247 12.5454C16.016 12.5366 16.0083 12.5268 16.0016 12.5162C15.9869 12.4974 15.9684 12.4662 15.9397 12.4304C15.8639 12.3259 15.7798 12.2279 15.6884 12.1373C15.4537 11.9024 15.1727 11.7211 14.8641 11.6052C14.5556 11.4894 14.2264 11.4417 13.8984 11.4653C13.7086 11.4784 13.5209 11.5141 13.3393 11.5718C13.2168 11.6104 13.0975 11.6589 12.9826 11.7169C12.942 11.7367 12.9115 11.7556 12.8902 11.766C12.8796 11.7724 12.8685 11.7777 12.8569 11.782C12.8664 11.7741 12.8766 11.7671 12.8874 11.7612C12.9078 11.749 12.9373 11.7292 12.9798 11.7085C13.094 11.6463 13.2134 11.5946 13.3365 11.5539C13.6515 11.4469 13.9854 11.4106 14.3153 11.4473C14.6453 11.4841 14.9636 11.5931 15.2485 11.7669C15.4136 11.8664 15.566 11.9864 15.7022 12.1241C15.7944 12.2164 15.8785 12.3167 15.9536 12.4238C15.9804 12.4615 15.9979 12.4926 16.0118 12.5134C16.0257 12.5341 16.0247 12.5454 16.0247 12.5454Z" fill="#263238"/>
<path d="M13.4335 17.9121V18.1826H12.3699V17.9677L12.9123 17.4446C13.0371 17.324 13.0592 17.2495 13.0592 17.1798C13.0592 17.0676 12.9825 17.0017 12.8338 17.0017C12.7775 16.9994 12.7215 17.0114 12.6707 17.0363C12.62 17.0613 12.576 17.0986 12.5427 17.1449L12.3052 16.9894C12.3697 16.9015 12.4544 16.8311 12.5519 16.7846C12.6495 16.738 12.7567 16.7168 12.8643 16.7227C13.1775 16.7227 13.3873 16.8867 13.3873 17.1468C13.3873 17.2863 13.3485 17.4135 13.1516 17.6002L12.8282 17.9121H13.4335Z" fill="#263238"/>
<path d="M14.6321 17.7321C14.6321 17.9856 14.4472 18.2034 14.0462 18.2034C13.8563 18.2069 13.6696 18.1535 13.5093 18.0497L13.6387 17.7952C13.7552 17.8805 13.8954 17.9257 14.0388 17.9244C14.2014 17.9244 14.3022 17.8556 14.3022 17.7359C14.3022 17.6162 14.2291 17.5474 13.9741 17.5474H13.6146L13.6867 16.7396H14.5452V17.0064H13.9584L13.9362 17.2787H14.0508C14.4666 17.2863 14.6321 17.4776 14.6321 17.7321Z" fill="#263238"/>
<path d="M15.9269 17.7293C15.9269 18.0233 15.6913 18.2071 15.3937 18.2071C15.0056 18.2071 14.7644 17.9592 14.7644 17.4955C14.7644 16.9998 15.0583 16.7227 15.4824 16.7227C15.619 16.7177 15.7543 16.7502 15.8742 16.8169L15.7541 17.061C15.6752 17.0111 15.5836 16.9861 15.4907 16.9894C15.2551 16.9894 15.1045 17.1308 15.0943 17.406C15.141 17.3622 15.1958 17.3285 15.2554 17.3066C15.3151 17.2848 15.3785 17.2753 15.4418 17.2788C15.7135 17.2825 15.9269 17.4588 15.9269 17.7293ZM15.6109 17.7462C15.611 17.7154 15.6046 17.6849 15.5923 17.6567C15.5799 17.6286 15.5618 17.6035 15.5391 17.5831C15.5165 17.5626 15.4898 17.5474 15.4609 17.5383C15.432 17.5292 15.4015 17.5265 15.3715 17.5304C15.3415 17.5271 15.3111 17.5303 15.2822 17.5395C15.2534 17.5488 15.2267 17.564 15.2039 17.5843C15.1811 17.6046 15.1626 17.6294 15.1496 17.6573C15.1367 17.6851 15.1295 17.7154 15.1285 17.7462C15.1285 17.8688 15.2209 17.9592 15.3762 17.9592C15.4056 17.9629 15.4356 17.96 15.4639 17.951C15.4922 17.9419 15.5184 17.9268 15.5405 17.9067C15.5627 17.8865 15.5805 17.8618 15.5926 17.8342C15.6047 17.8065 15.611 17.7765 15.6109 17.7462Z" fill="#263238"/>
<path d="M13.5399 19.258V18.6605L13.2535 19.1657H13.2285L12.942 18.6624V19.258H12.8931V18.5596H12.9356L13.2415 19.0997L13.5473 18.5596H13.5889V19.258H13.5399Z" fill="#263238"/>
<path d="M14.3207 18.9988C14.3222 19.0334 14.3168 19.068 14.3047 19.1003C14.2925 19.1327 14.274 19.1621 14.2503 19.1869C14.2266 19.2116 14.1981 19.2311 14.1666 19.2442C14.1352 19.2572 14.1014 19.2636 14.0675 19.2627C14.0246 19.2639 13.9822 19.2526 13.9452 19.2303C13.9083 19.2079 13.8783 19.1754 13.8587 19.1365V19.259H13.8115V18.5182H13.8605V18.8565C13.8806 18.8186 13.9105 18.7871 13.9471 18.7655C13.9836 18.7439 14.0253 18.733 14.0675 18.734C14.1015 18.7332 14.1353 18.7395 14.1669 18.7526C14.1984 18.7657 14.2269 18.7853 14.2507 18.8102C14.2744 18.835 14.2929 18.8646 14.3049 18.8971C14.317 18.9295 14.3224 18.9642 14.3207 18.9988ZM14.2717 18.9988C14.2701 18.9577 14.2567 18.918 14.2331 18.8846C14.2095 18.8512 14.1768 18.8255 14.1391 18.8109C14.1014 18.7963 14.0603 18.7932 14.0209 18.8022C13.9815 18.8112 13.9456 18.8317 13.9176 18.8613C13.8895 18.8909 13.8706 18.9283 13.8632 18.9688C13.8558 19.0092 13.8602 19.051 13.8759 19.0889C13.8916 19.1269 13.9178 19.1593 13.9514 19.1821C13.985 19.205 14.0244 19.2173 14.0647 19.2175C14.0927 19.2181 14.1205 19.2127 14.1463 19.2018C14.1722 19.191 14.1956 19.1747 14.215 19.1542C14.2344 19.1337 14.2495 19.1093 14.2592 19.0826C14.269 19.0558 14.2733 19.0273 14.2717 18.9988Z" fill="#263238"/>
<path d="M14.9806 18.9988C14.9823 19.0334 14.9769 19.0679 14.9649 19.1003C14.9529 19.1326 14.9345 19.1621 14.9108 19.1868C14.8872 19.2116 14.8587 19.2311 14.8273 19.2442C14.7959 19.2572 14.7622 19.2636 14.7283 19.2627C14.686 19.2638 14.6441 19.253 14.6075 19.2313C14.5708 19.2097 14.5406 19.1782 14.5204 19.1402V19.4522H14.4714V18.7378H14.5186V18.8603C14.5384 18.8213 14.5686 18.7888 14.6057 18.7665C14.6428 18.7442 14.6853 18.7329 14.7283 18.734C14.7623 18.7332 14.7961 18.7395 14.8276 18.7526C14.859 18.7657 14.8875 18.7853 14.9112 18.8102C14.9349 18.8351 14.9533 18.8647 14.9652 18.8971C14.9772 18.9296 14.9824 18.9642 14.9806 18.9988ZM14.9316 18.9988C14.93 18.9577 14.9165 18.9179 14.8929 18.8845C14.8693 18.851 14.8366 18.8254 14.7988 18.8108C14.7611 18.7962 14.7199 18.7932 14.6805 18.8023C14.6411 18.8113 14.6052 18.832 14.5772 18.8617C14.5492 18.8914 14.5303 18.9288 14.523 18.9693C14.5157 19.0099 14.5203 19.0517 14.5361 19.0896C14.5519 19.1275 14.5783 19.1598 14.612 19.1826C14.6457 19.2053 14.6852 19.2175 14.7256 19.2175C14.7535 19.2179 14.7811 19.2125 14.8069 19.2016C14.8326 19.1906 14.8559 19.1744 14.8752 19.1539C14.8945 19.1334 14.9095 19.109 14.9192 19.0823C14.9289 19.0557 14.9332 19.0272 14.9316 18.9988Z" fill="#263238"/>
<path d="M15.0562 19.1949L15.0793 19.1553C15.1321 19.1971 15.1972 19.2193 15.2641 19.2185C15.3713 19.2185 15.4147 19.1789 15.4147 19.1242C15.4147 18.9725 15.0756 19.0837 15.0756 18.8792C15.0756 18.8009 15.1402 18.7368 15.2696 18.7368C15.3318 18.7358 15.3929 18.7535 15.4452 18.7877L15.4221 18.8273C15.3771 18.7956 15.3234 18.7791 15.2687 18.7802C15.1689 18.7802 15.1245 18.8226 15.1245 18.8744C15.1245 19.0318 15.4637 18.9206 15.4637 19.1195C15.4637 19.2043 15.3916 19.2618 15.2622 19.2618C15.188 19.2643 15.1153 19.2407 15.0562 19.1949Z" fill="#263238"/>
<path d="M2.65863 10.3701C2.41652 10.0299 1.6948 9.81873 1.28912 9.89884C1.06826 9.94031 0.866804 10.0496 0.65611 10.1288C0.445415 10.208 0.208846 10.2551 0 10.1722C0.646868 10.7839 1.91658 10.8564 2.65863 10.3729" fill="#FF9F1C"/>
</svg>
