<svg width="170" height="170" viewBox="0 0 170 170" fill="none" xmlns="http://www.w3.org/2000/svg">
<path d="M57.4249 117.522C59.3775 119.474 62.5433 119.474 64.4959 117.522L81.4629 100.555C83.4155 98.6023 86.5813 98.6023 88.5339 100.555L105.501 117.522C107.453 119.474 110.619 119.474 112.572 117.522L117.52 112.574C119.473 110.621 119.473 107.455 117.52 105.503L100.553 88.5359C98.6003 86.5833 98.6003 83.4174 100.553 81.4648L117.52 64.4979C119.473 62.5453 119.473 59.3794 117.52 57.4268L112.572 52.4789C110.619 50.5263 107.453 50.5263 105.501 52.4789L88.5339 69.4458C86.5813 71.3984 83.4155 71.3985 81.4629 69.4458L64.4959 52.4789C62.5433 50.5263 59.3775 50.5263 57.4249 52.4789L52.4769 57.4268C50.5243 59.3794 50.5243 62.5453 52.4769 64.4979L69.4439 81.4648C71.3965 83.4174 71.3965 86.5833 69.4439 88.5359L52.4769 105.503C50.5243 107.455 50.5243 110.621 52.4769 112.574L57.4249 117.522Z" fill="#EE6055"/>
<path d="M85 170C131.869 170 170 131.869 170 85C170 38.131 131.869 0 85 0C38.131 0 0 38.131 0 85C0 131.869 38.131 170 85 170ZM85 17C122.493 17 153 47.5065 153 85C153 122.493 122.493 153 85 153C47.5065 153 17 122.493 17 85C17 47.5065 47.5065 17 85 17Z" fill="#EE6055"/>
</svg>
