<svg width="21" height="20" viewBox="0 0 21 20" fill="none" xmlns="http://www.w3.org/2000/svg">
<path fill-rule="evenodd" clip-rule="evenodd" d="M9.5 3.50002C8.04131 3.50002 6.64236 4.07948 5.61091 5.11093C4.57946 6.14238 4 7.54133 4 9.00002C4 10.4587 4.57946 11.8577 5.61091 12.8891C6.64236 13.9206 8.04131 14.5 9.5 14.5C10.9587 14.5 12.3576 13.9206 13.3891 12.8891C14.4205 11.8577 15 10.4587 15 9.00002C15 7.54133 14.4205 6.14238 13.3891 5.11093C12.3576 4.07948 10.9587 3.50002 9.5 3.50002ZM2.5 9.00002C2.50009 7.88069 2.76861 6.7777 3.28303 5.78358C3.79745 4.78946 4.54276 3.9332 5.45645 3.28662C6.37015 2.64004 7.42557 2.22199 8.5342 2.06756C9.64282 1.91312 10.7723 2.0268 11.8279 2.39904C12.8836 2.77129 13.8345 3.39126 14.601 4.20694C15.3676 5.02262 15.9273 6.01022 16.2333 7.08691C16.5393 8.1636 16.5827 9.29797 16.3597 10.3949C16.1368 11.4918 15.654 12.5192 14.952 13.391L18.28 16.72C18.3537 16.7887 18.4128 16.8715 18.4538 16.9635C18.4948 17.0555 18.5168 17.1548 18.5186 17.2555C18.5204 17.3562 18.5018 17.4562 18.4641 17.5496C18.4264 17.643 18.3703 17.7278 18.299 17.7991C18.2278 17.8703 18.143 17.9264 18.0496 17.9641C17.9562 18.0019 17.8562 18.0204 17.7555 18.0186C17.6548 18.0168 17.5555 17.9948 17.4635 17.9538C17.3715 17.9128 17.2887 17.8537 17.22 17.78L13.891 14.452C12.8625 15.2804 11.6207 15.801 10.309 15.9536C8.99727 16.1062 7.66912 15.8847 6.47795 15.3145C5.28677 14.7444 4.28117 13.849 3.57727 12.7316C2.87338 11.6143 2.49991 10.3206 2.5 9.00002Z" fill="white"/>
</svg>
