<svg width="20" height="20" viewBox="0 0 20 20" fill="none" xmlns="http://www.w3.org/2000/svg">
<path d="M16.3612 6.66412C16.372 6.80995 16.372 6.95496 16.372 7.09996C16.372 11.5375 12.9945 16.6508 6.82199 16.6508C4.92033 16.6508 3.15366 16.1 1.66699 15.1433C1.93699 15.1741 2.19699 15.185 2.47783 15.185C3.98865 15.1886 5.4567 14.6834 6.64533 13.7508C5.94484 13.7381 5.26581 13.507 4.70302 13.0897C4.14024 12.6725 3.72181 12.0899 3.50616 11.4233C3.71366 11.4541 3.92199 11.475 4.14033 11.475C4.44116 11.475 4.74366 11.4333 5.02449 11.3608C4.26429 11.2073 3.58072 10.7952 3.09001 10.1947C2.5993 9.59414 2.33174 8.84216 2.33283 8.06662V8.02495C2.78033 8.27412 3.29949 8.42995 3.84949 8.45079C3.38873 8.14461 3.01093 7.72914 2.74978 7.24145C2.48863 6.75375 2.35225 6.209 2.35283 5.65579C2.35283 5.03245 2.51866 4.46079 2.80949 3.96245C3.65294 4.99997 4.70491 5.84876 5.89727 6.45384C7.08963 7.05892 8.39579 7.4068 9.73116 7.47496C9.67949 7.22495 9.64783 6.96579 9.64783 6.70579C9.64761 6.26492 9.73428 5.82834 9.90289 5.42099C10.0715 5.01364 10.3187 4.64352 10.6305 4.33178C10.9422 4.02004 11.3123 3.7728 11.7197 3.60419C12.127 3.43558 12.5636 3.3489 13.0045 3.34912C13.9712 3.34912 14.8437 3.75412 15.457 4.40912C16.2085 4.2638 16.9291 3.98947 17.587 3.59829C17.3365 4.37397 16.8118 5.03171 16.1112 5.44829C16.7776 5.37227 17.429 5.197 18.0437 4.92829C17.5846 5.59754 17.0158 6.18441 16.3612 6.66412Z" fill="#7B7B7B"/>
</svg>
